DavidX-Bold_draw_HB.ufo
<glyph name="ampersand" format="1">
  <advance width="1353"/>
  <unicode hex="0026"/>
  <outline>
    <contour>
      <point x="339" y="975" type="curve" smooth="yes"/>
      <point x="339" y="942"/>
      <point x="342" y="900"/>
      <point x="355" y="865" type="curve" smooth="yes"/>
      <point x="380" y="799"/>
      <point x="402" y="765"/>
      <point x="417" y="740" type="curve"/>
      <point x="382" y="717"/>
      <point x="193" y="577"/>
      <point x="193" y="369" type="curve" smooth="yes"/>
      <point x="193" y="106"/>
      <point x="398" y="0"/>
      <point x="539" y="0" type="curve" smooth="yes"/>
      <point x="692" y="0"/>
      <point x="810" y="81"/>
      <point x="884" y="131" type="curve"/>
      <point x="894" y="115"/>
      <point x="966" y="29"/>
      <point x="989" y="5" type="curve" smooth="yes"/>
      <point x="991" y="4"/>
      <point x="997" y="-2"/>
      <point x="1005" y="-2" type="curve" smooth="yes"/>
      <point x="1011" y="-2"/>
      <point x="1023" y="2"/>
      <point x="1029" y="5" type="curve" smooth="yes"/>
      <point x="1077" y="31"/>
      <point x="1138" y="67"/>
      <point x="1154" y="77" type="curve" smooth="yes"/>
      <point x="1158" y="79"/>
      <point x="1159" y="81"/>
      <point x="1159" y="82" type="curve" smooth="yes"/>
      <point x="1159" y="86"/>
      <point x="1152" y="93"/>
      <point x="1147" y="99" type="curve" smooth="yes"/>
      <point x="1098" y="149"/>
      <point x="1057" y="200"/>
      <point x="1019" y="249" type="curve"/>
      <point x="1108" y="361"/>
      <point x="1168" y="464"/>
      <point x="1168" y="606" type="curve" smooth="yes"/>
      <point x="1168" y="679"/>
      <point x="1145" y="761"/>
      <point x="1129" y="792" type="curve" smooth="yes"/>
      <point x="1124" y="801"/>
      <point x="1120" y="805"/>
      <point x="1115" y="805" type="curve" smooth="yes"/>
      <point x="1111" y="805"/>
      <point x="1110" y="803"/>
      <point x="1104" y="797" type="curve" smooth="yes"/>
      <point x="1082" y="778"/>
      <point x="1009" y="706"/>
      <point x="985" y="681" type="curve" smooth="yes"/>
      <point x="978" y="674"/>
      <point x="977" y="669"/>
      <point x="977" y="663" type="curve" smooth="yes"/>
      <point x="977" y="660"/>
      <point x="978" y="656"/>
      <point x="980" y="650" type="curve" smooth="yes"/>
      <point x="993" y="624"/>
      <point x="1025" y="568"/>
      <point x="1025" y="489" type="curve" smooth="yes"/>
      <point x="1025" y="428"/>
      <point x="995" y="357"/>
      <point x="961" y="315" type="curve"/>
      <point x="844" y="460"/>
      <point x="732" y="611"/>
      <point x="604" y="783" type="curve"/>
      <point x="684" y="844"/>
      <point x="816" y="964"/>
      <point x="816" y="1082" type="curve" smooth="yes"/>
      <point x="816" y="1229"/>
      <point x="730" y="1289"/>
      <point x="647" y="1291" type="curve"/>
      <point x="609" y="1291"/>
      <point x="566" y="1278"/>
      <point x="525" y="1255" type="curve" smooth="yes"/>
      <point x="426" y="1199"/>
      <point x="339" y="1084"/>
    </contour>
    <contour>
      <point x="554" y="1170" type="curve" smooth="yes"/>
      <point x="609" y="1170"/>
      <point x="670" y="1111"/>
      <point x="670" y="1045" type="curve" smooth="yes"/>
      <point x="670" y="964"/>
      <point x="624" y="910"/>
      <point x="557" y="858" type="curve"/>
      <point x="515" y="932"/>
      <point x="459" y="1009"/>
      <point x="459" y="1093" type="curve" smooth="yes"/>
      <point x="459" y="1152"/>
      <point x="515" y="1170"/>
    </contour>
    <contour>
      <point x="472" y="665" type="curve"/>
      <point x="501" y="614"/>
      <point x="774" y="262"/>
      <point x="831" y="199" type="curve"/>
      <point x="809" y="179"/>
      <point x="737" y="127"/>
      <point x="640" y="127" type="curve" smooth="yes"/>
      <point x="466" y="127"/>
      <point x="344" y="256"/>
      <point x="344" y="414" type="curve" smooth="yes"/>
      <point x="344" y="556"/>
      <point x="436" y="641"/>
    </contour>
  </outline>
</glyph>
<glyph name="quotesingle" format="1">
  <advance width="556"/>
  <unicode hex="0027"/>
  <outline>
    <contour>
      <point x="253" y="453" type="line"/>
      <point x="253" y="431"/>
      <point x="276" y="416"/>
      <point x="291" y="416" type="curve" smooth="yes"/>
      <point x="306" y="416"/>
      <point x="326" y="421"/>
      <point x="337" y="462" type="curve" smooth="yes"/>
      <point x="383" y="640"/>
      <point x="396" y="699"/>
      <point x="412" y="776" type="curve" smooth="yes"/>
      <point x="424" y="833"/>
      <point x="439" y="887"/>
      <point x="439" y="954" type="curve" smooth="yes"/>
      <point x="439" y="1061" type="line" smooth="yes"/>
      <point x="439" y="1077"/>
      <point x="439" y="1124"/>
      <point x="414" y="1124" type="curve" smooth="yes"/>
      <point x="402" y="1124"/>
      <point x="387" y="1118"/>
      <point x="376" y="1110" type="curve" smooth="yes"/>
      <point x="333" y="1079"/>
      <point x="253" y="1009"/>
      <point x="210" y="956" type="curve" smooth="yes"/>
      <point x="200" y="942"/>
      <point x="200" y="921"/>
      <point x="200" y="903" type="curve"/>
    </contour>
  </outline>
</glyph>
<glyph name="parenleft" format="1">
  <advance width="732"/>
  <unicode hex="0028"/>
  <outline>
    <contour>
      <point x="317" y="536" type="curve" smooth="yes"/>
      <point x="317" y="439"/>
      <point x="340" y="291"/>
      <point x="385" y="176" type="curve" smooth="yes"/>
      <point x="434" y="48"/>
      <point x="496" y="-46"/>
      <point x="552" y="-127" type="curve" smooth="yes"/>
      <point x="559" y="-138"/>
      <point x="564" y="-147"/>
      <point x="564" y="-159" type="curve" smooth="yes"/>
      <point x="564" y="-165"/>
      <point x="564" y="-172"/>
      <point x="561" y="-179" type="curve" smooth="yes"/>
      <point x="537" y="-228"/>
      <point x="511" y="-272"/>
      <point x="491" y="-299" type="curve" smooth="yes"/>
      <point x="486" y="-306"/>
      <point x="479" y="-310"/>
      <point x="473" y="-310" type="curve" smooth="yes"/>
      <point x="466" y="-310"/>
      <point x="460" y="-306"/>
      <point x="455" y="-299" type="curve" smooth="yes"/>
      <point x="396" y="-221"/>
      <point x="308" y="-97"/>
      <point x="248" y="52" type="curve" smooth="yes"/>
      <point x="193" y="183"/>
      <point x="169" y="349"/>
      <point x="169" y="448" type="curve" smooth="yes"/>
      <point x="169" y="622"/>
      <point x="226" y="744"/>
      <point x="274" y="846" type="curve" smooth="yes"/>
      <point x="305" y="908"/>
      <point x="387" y="1052"/>
      <point x="402" y="1075" type="curve" smooth="yes"/>
      <point x="417" y="1103"/>
      <point x="431" y="1127"/>
      <point x="453" y="1156" type="curve" smooth="yes"/>
      <point x="459" y="1163"/>
      <point x="509" y="1215"/>
      <point x="545" y="1243" type="curve" smooth="yes"/>
      <point x="550" y="1247"/>
      <point x="559" y="1251"/>
      <point x="563" y="1251" type="curve" smooth="yes"/>
      <point x="571" y="1251"/>
      <point x="575" y="1245"/>
      <point x="575" y="1235" type="curve" smooth="yes"/>
      <point x="575" y="1226"/>
      <point x="438" y="970"/>
      <point x="424" y="941" type="curve" smooth="yes"/>
      <point x="362" y="805"/>
      <point x="317" y="669"/>
    </contour>
  </outline>
</glyph>
<glyph name="parenright" format="1">
  <advance width="732"/>
  <unicode hex="0029"/>
  <outline>
    <contour>
      <point x="426" y="405" type="curve" smooth="yes"/>
      <point x="426" y="501"/>
      <point x="403" y="650"/>
      <point x="359" y="765" type="curve" smooth="yes"/>
      <point x="310" y="893"/>
      <point x="248" y="987"/>
      <point x="192" y="1068" type="curve" smooth="yes"/>
      <point x="185" y="1079"/>
      <point x="179" y="1088"/>
      <point x="179" y="1100" type="curve" smooth="yes"/>
      <point x="179" y="1106"/>
      <point x="179" y="1113"/>
      <point x="183" y="1120" type="curve" smooth="yes"/>
      <point x="207" y="1168"/>
      <point x="233" y="1213"/>
      <point x="253" y="1240" type="curve" smooth="yes"/>
      <point x="258" y="1247"/>
      <point x="265" y="1251"/>
      <point x="270" y="1251" type="curve" smooth="yes"/>
      <point x="277" y="1251"/>
      <point x="284" y="1247"/>
      <point x="289" y="1240" type="curve" smooth="yes"/>
      <point x="347" y="1161"/>
      <point x="436" y="1038"/>
      <point x="496" y="889" type="curve" smooth="yes"/>
      <point x="550" y="758"/>
      <point x="575" y="592"/>
      <point x="575" y="493" type="curve" smooth="yes"/>
      <point x="575" y="319"/>
      <point x="522" y="192"/>
      <point x="470" y="91" type="curve" smooth="yes"/>
      <point x="438" y="29"/>
      <point x="361" y="-111"/>
      <point x="346" y="-135" type="curve" smooth="yes"/>
      <point x="330" y="-161"/>
      <point x="313" y="-186"/>
      <point x="291" y="-215" type="curve" smooth="yes"/>
      <point x="285" y="-222"/>
      <point x="235" y="-274"/>
      <point x="199" y="-303" type="curve" smooth="yes"/>
      <point x="193" y="-306"/>
      <point x="185" y="-310"/>
      <point x="181" y="-310" type="curve" smooth="yes"/>
      <point x="172" y="-310"/>
      <point x="169" y="-305"/>
      <point x="169" y="-294" type="curve" smooth="yes"/>
      <point x="169" y="-285"/>
      <point x="306" y="-29"/>
      <point x="319" y="0" type="curve" smooth="yes"/>
      <point x="382" y="137"/>
      <point x="426" y="272"/>
    </contour>
  </outline>
</glyph>
<glyph name="asterisk" format="1">
  <advance width="732"/>
  <unicode hex="002A"/>
  <outline>
    <contour>
      <point x="375" y="1129" type="curve" smooth="yes"/>
      <point x="371" y="1131"/>
      <point x="368" y="1132"/>
      <point x="364" y="1132" type="curve" smooth="yes"/>
      <point x="361" y="1132"/>
      <point x="359" y="1131"/>
      <point x="355" y="1129" type="curve" smooth="yes"/>
      <point x="346" y="1124"/>
      <point x="276" y="1075"/>
      <point x="265" y="1070" type="curve" smooth="yes"/>
      <point x="263" y="1068"/>
      <point x="260" y="1068"/>
      <point x="258" y="1068" type="curve" smooth="yes"/>
      <point x="251" y="1068"/>
      <point x="244" y="1074"/>
      <point x="244" y="1082" type="curve" smooth="yes"/>
      <point x="244" y="1100"/>
      <point x="276" y="1166"/>
      <point x="276" y="1178" type="curve" smooth="yes"/>
      <point x="276" y="1190"/>
      <point x="274" y="1195"/>
      <point x="270" y="1199" type="curve" smooth="yes"/>
      <point x="248" y="1217"/>
      <point x="204" y="1245"/>
      <point x="195" y="1251" type="curve" smooth="yes"/>
      <point x="190" y="1255"/>
      <point x="188" y="1260"/>
      <point x="188" y="1264" type="curve" smooth="yes"/>
      <point x="188" y="1271"/>
      <point x="193" y="1276"/>
      <point x="202" y="1276" type="curve"/>
      <point x="292" y="1276" type="line" smooth="yes"/>
      <point x="303" y="1276"/>
      <point x="313" y="1279"/>
      <point x="317" y="1292" type="curve" smooth="yes"/>
      <point x="325" y="1315"/>
      <point x="347" y="1382"/>
      <point x="351" y="1389" type="curve" smooth="yes"/>
      <point x="353" y="1396"/>
      <point x="359" y="1399"/>
      <point x="364" y="1399" type="curve" smooth="yes"/>
      <point x="369" y="1399"/>
      <point x="375" y="1396"/>
      <point x="376" y="1389" type="curve" smooth="yes"/>
      <point x="378" y="1382"/>
      <point x="405" y="1315"/>
      <point x="412" y="1292" type="curve" smooth="yes"/>
      <point x="416" y="1279"/>
      <point x="426" y="1276"/>
      <point x="438" y="1276" type="curve"/>
      <point x="523" y="1276" type="line" smooth="yes"/>
      <point x="532" y="1276"/>
      <point x="537" y="1271"/>
      <point x="537" y="1264" type="curve" smooth="yes"/>
      <point x="537" y="1260"/>
      <point x="532" y="1253"/>
      <point x="527" y="1249" type="curve" smooth="yes"/>
      <point x="518" y="1243"/>
      <point x="480" y="1217"/>
      <point x="459" y="1199" type="curve" smooth="yes"/>
      <point x="455" y="1195"/>
      <point x="453" y="1190"/>
      <point x="453" y="1178" type="curve" smooth="yes"/>
      <point x="453" y="1163"/>
      <point x="482" y="1103"/>
      <point x="482" y="1084" type="curve" smooth="yes"/>
      <point x="482" y="1075"/>
      <point x="477" y="1068"/>
      <point x="470" y="1068" type="curve" smooth="yes"/>
      <point x="470" y="1068"/>
      <point x="466" y="1070"/>
      <point x="464" y="1070" type="curve" smooth="yes"/>
      <point x="453" y="1075"/>
      <point x="383" y="1124"/>
    </contour>
  </outline>
</glyph>
<glyph name="period" format="1">
  <advance width="732"/>
  <unicode hex="002E"/>
  <outline>
    <contour>
      <point x="253" y="61" type="curve" smooth="yes"/>
      <point x="248" y="68"/>
      <point x="244" y="77"/>
      <point x="244" y="82" type="curve" smooth="yes"/>
      <point x="244" y="88"/>
      <point x="246" y="93"/>
      <point x="249" y="97" type="curve" smooth="yes"/>
      <point x="284" y="131"/>
      <point x="319" y="172"/>
      <point x="337" y="199" type="curve" smooth="yes"/>
      <point x="342" y="207"/>
      <point x="347" y="208"/>
      <point x="353" y="208" type="curve" smooth="yes"/>
      <point x="361" y="208"/>
      <point x="364" y="204"/>
      <point x="369" y="200" type="curve" smooth="yes"/>
      <point x="390" y="186"/>
      <point x="455" y="118"/>
      <point x="473" y="108" type="curve" smooth="yes"/>
      <point x="480" y="102"/>
      <point x="487" y="95"/>
      <point x="487" y="86" type="curve" smooth="yes"/>
      <point x="487" y="79"/>
      <point x="484" y="75"/>
      <point x="479" y="65" type="curve" smooth="yes"/>
      <point x="468" y="43"/>
      <point x="410" y="-24"/>
      <point x="385" y="-39" type="curve" smooth="yes"/>
      <point x="382" y="-41"/>
      <point x="376" y="-43"/>
      <point x="373" y="-43" type="curve" smooth="yes"/>
      <point x="369" y="-43"/>
      <point x="364" y="-41"/>
      <point x="361" y="-39" type="curve" smooth="yes"/>
      <point x="333" y="-24"/>
      <point x="277" y="31"/>
    </contour>
  </outline>
</glyph>
<glyph name="five" format="1">
  <advance width="1018"/>
  <unicode hex="0035"/>
  <outline>
    <contour>
      <point x="226" y="172" type="curve" smooth="yes"/>
      <point x="231" y="179"/>
      <point x="238" y="183"/>
      <point x="248" y="183" type="curve" smooth="yes"/>
      <point x="253" y="183"/>
      <point x="258" y="181"/>
      <point x="265" y="179" type="curve" smooth="yes"/>
      <point x="321" y="159"/>
      <point x="428" y="144"/>
      <point x="486" y="144" type="curve" smooth="yes"/>
      <point x="537" y="144"/>
      <point x="583" y="152"/>
      <point x="620" y="185" type="curve" smooth="yes"/>
      <point x="665" y="222"/>
      <point x="699" y="291"/>
      <point x="699" y="357" type="curve" smooth="yes"/>
      <point x="699" y="423"/>
      <point x="662" y="484"/>
      <point x="611" y="523" type="curve" smooth="yes"/>
      <point x="559" y="563"/>
      <point x="472" y="575"/>
      <point x="368" y="575" type="curve" smooth="yes"/>
      <point x="294" y="575" type="line"/>
      <point x="238" y="575"/>
      <point x="217" y="604"/>
      <point x="215" y="634" type="curve" smooth="yes"/>
      <point x="207" y="773"/>
      <point x="207" y="908"/>
      <point x="207" y="1041" type="curve" smooth="yes"/>
      <point x="207" y="1052"/>
      <point x="202" y="1070"/>
      <point x="202" y="1091" type="curve" smooth="yes"/>
      <point x="202" y="1106"/>
      <point x="204" y="1122"/>
      <point x="210" y="1134" type="curve" smooth="yes"/>
      <point x="240" y="1195"/>
      <point x="260" y="1242"/>
      <point x="291" y="1278" type="curve" smooth="yes"/>
      <point x="294" y="1283"/>
      <point x="301" y="1286"/>
      <point x="308" y="1286" type="curve" smooth="yes"/>
      <point x="317" y="1286"/>
      <point x="328" y="1283"/>
      <point x="332" y="1276" type="curve" smooth="yes"/>
      <point x="342" y="1258"/>
      <point x="362" y="1224"/>
      <point x="369" y="1215" type="curve" smooth="yes"/>
      <point x="378" y="1204"/>
      <point x="389" y="1204"/>
      <point x="402" y="1204" type="curve" smooth="yes"/>
      <point x="812" y="1204" type="line"/>
      <point x="835" y="1204"/>
      <point x="843" y="1194"/>
      <point x="843" y="1185" type="curve" smooth="yes"/>
      <point x="843" y="1181"/>
      <point x="835" y="1165"/>
      <point x="833" y="1163" type="curve" smooth="yes"/>
      <point x="816" y="1136"/>
      <point x="778" y="1072"/>
      <point x="760" y="1048" type="curve" smooth="yes"/>
      <point x="749" y="1036"/>
      <point x="740" y="1033"/>
      <point x="717" y="1033" type="curve" smooth="yes"/>
      <point x="376" y="1033" type="line"/>
      <point x="355" y="1033"/>
      <point x="344" y="1027"/>
      <point x="344" y="1005" type="curve" smooth="yes"/>
      <point x="344" y="1005"/>
      <point x="349" y="824"/>
      <point x="349" y="799" type="curve" smooth="yes"/>
      <point x="349" y="769"/>
      <point x="371" y="746"/>
      <point x="393" y="746" type="curve"/>
      <point x="503" y="746" type="line"/>
      <point x="624" y="746"/>
      <point x="851" y="663"/>
      <point x="851" y="432" type="curve" smooth="yes"/>
      <point x="851" y="306"/>
      <point x="765" y="197"/>
      <point x="761" y="190" type="curve" smooth="yes"/>
      <point x="679" y="65"/>
      <point x="549" y="-29"/>
      <point x="403" y="-29" type="curve" smooth="yes"/>
      <point x="328" y="-29"/>
      <point x="217" y="-11"/>
      <point x="152" y="20" type="curve" smooth="yes"/>
      <point x="138" y="27"/>
      <point x="135" y="32"/>
      <point x="135" y="39" type="curve" smooth="yes"/>
      <point x="135" y="46"/>
      <point x="138" y="53"/>
      <point x="142" y="60" type="curve" smooth="yes"/>
      <point x="174" y="106"/>
      <point x="208" y="151"/>
    </contour>
  </outline>
</glyph>
<glyph name="eight" format="1">
  <advance width="1018"/>
  <unicode hex="0038"/>
  <outline>
    <contour>
      <point x="116" y="326" type="curve" smooth="yes"/>
      <point x="116" y="491"/>
      <point x="224" y="577"/>
      <point x="323" y="633" type="curve" smooth="yes"/>
      <point x="330" y="636"/>
      <point x="333" y="641"/>
      <point x="333" y="645" type="curve" smooth="yes"/>
      <point x="333" y="648"/>
      <point x="332" y="650"/>
      <point x="330" y="652" type="curve" smooth="yes"/>
      <point x="269" y="684"/>
      <point x="179" y="761"/>
      <point x="179" y="910" type="curve" smooth="yes"/>
      <point x="179" y="949"/>
      <point x="193" y="1012"/>
      <point x="222" y="1052" type="curve" smooth="yes"/>
      <point x="258" y="1108"/>
      <point x="333" y="1183"/>
      <point x="378" y="1213" type="curve" smooth="yes"/>
      <point x="412" y="1238"/>
      <point x="462" y="1267"/>
      <point x="539" y="1267" type="curve" smooth="yes"/>
      <point x="697" y="1267"/>
      <point x="824" y="1151"/>
      <point x="824" y="997" type="curve" smooth="yes"/>
      <point x="824" y="886"/>
      <point x="756" y="788"/>
      <point x="676" y="730" type="curve" smooth="yes"/>
      <point x="660" y="717"/>
      <point x="645" y="710"/>
      <point x="638" y="701" type="curve" smooth="yes"/>
      <point x="636" y="699"/>
      <point x="636" y="696"/>
      <point x="636" y="694" type="curve" smooth="yes"/>
      <point x="636" y="688"/>
      <point x="638" y="684"/>
      <point x="641" y="683" type="curve" smooth="yes"/>
      <point x="674" y="665"/>
      <point x="733" y="626"/>
      <point x="774" y="593" type="curve" smooth="yes"/>
      <point x="838" y="543"/>
      <point x="882" y="464"/>
      <point x="882" y="376" type="curve" smooth="yes"/>
      <point x="882" y="301"/>
      <point x="846" y="208"/>
      <point x="780" y="133" type="curve" smooth="yes"/>
      <point x="713" y="55"/>
      <point x="585" y="-29"/>
      <point x="480" y="-29" type="curve" smooth="yes"/>
      <point x="409" y="-29"/>
      <point x="292" y="9"/>
      <point x="217" y="88" type="curve" smooth="yes"/>
      <point x="151" y="156"/>
      <point x="116" y="236"/>
    </contour>
    <contour>
      <point x="717" y="335" type="curve" smooth="yes"/>
      <point x="717" y="403"/>
      <point x="679" y="459"/>
      <point x="631" y="489" type="curve" smooth="yes"/>
      <point x="581" y="522"/>
      <point x="523" y="550"/>
      <point x="452" y="586" type="curve" smooth="yes"/>
      <point x="448" y="588"/>
      <point x="446" y="588"/>
      <point x="443" y="588" type="curve" smooth="yes"/>
      <point x="439" y="588"/>
      <point x="438" y="588"/>
      <point x="434" y="586" type="curve" smooth="yes"/>
      <point x="398" y="573"/>
      <point x="277" y="506"/>
      <point x="277" y="380" type="curve" smooth="yes"/>
      <point x="277" y="244"/>
      <point x="387" y="137"/>
      <point x="545" y="137" type="curve" smooth="yes"/>
      <point x="663" y="137"/>
      <point x="717" y="214"/>
    </contour>
    <contour>
      <point x="537" y="756" type="curve" smooth="yes"/>
      <point x="609" y="795"/>
      <point x="670" y="858"/>
      <point x="670" y="937" type="curve" smooth="yes"/>
      <point x="670" y="1027"/>
      <point x="570" y="1111"/>
      <point x="464" y="1111" type="curve" smooth="yes"/>
      <point x="376" y="1111"/>
      <point x="340" y="1019"/>
      <point x="340" y="946" type="curve" smooth="yes"/>
      <point x="340" y="853"/>
      <point x="424" y="795"/>
      <point x="486" y="767" type="curve" smooth="yes"/>
      <point x="494" y="763"/>
      <point x="513" y="753"/>
      <point x="523" y="753" type="curve" smooth="yes"/>
      <point x="530" y="753"/>
      <point x="534" y="754"/>
    </contour>
  </outline>
</glyph>
<glyph name="colon" format="1">
  <advance width="732"/>
  <unicode hex="003A"/>
  <outline>
    <contour>
      <point x="253" y="61" type="curve" smooth="yes"/>
      <point x="248" y="68"/>
      <point x="244" y="77"/>
      <point x="244" y="82" type="curve" smooth="yes"/>
      <point x="244" y="88"/>
      <point x="246" y="93"/>
      <point x="249" y="97" type="curve" smooth="yes"/>
      <point x="284" y="131"/>
      <point x="319" y="172"/>
      <point x="337" y="199" type="curve" smooth="yes"/>
      <point x="342" y="207"/>
      <point x="347" y="208"/>
      <point x="353" y="208" type="curve" smooth="yes"/>
      <point x="361" y="208"/>
      <point x="364" y="204"/>
      <point x="369" y="200" type="curve" smooth="yes"/>
      <point x="390" y="186"/>
      <point x="455" y="118"/>
      <point x="473" y="108" type="curve" smooth="yes"/>
      <point x="480" y="102"/>
      <point x="487" y="95"/>
      <point x="487" y="86" type="curve" smooth="yes"/>
      <point x="487" y="79"/>
      <point x="484" y="75"/>
      <point x="479" y="65" type="curve" smooth="yes"/>
      <point x="468" y="43"/>
      <point x="410" y="-24"/>
      <point x="385" y="-39" type="curve" smooth="yes"/>
      <point x="382" y="-41"/>
      <point x="376" y="-43"/>
      <point x="373" y="-43" type="curve" smooth="yes"/>
      <point x="369" y="-43"/>
      <point x="364" y="-41"/>
      <point x="361" y="-39" type="curve" smooth="yes"/>
      <point x="333" y="-24"/>
      <point x="277" y="31"/>
    </contour>
    <contour>
      <point x="253" y="487" type="curve" smooth="yes"/>
      <point x="248" y="494"/>
      <point x="244" y="503"/>
      <point x="244" y="509" type="curve" smooth="yes"/>
      <point x="244" y="515"/>
      <point x="246" y="520"/>
      <point x="249" y="523" type="curve" smooth="yes"/>
      <point x="284" y="557"/>
      <point x="319" y="599"/>
      <point x="337" y="626" type="curve" smooth="yes"/>
      <point x="342" y="633"/>
      <point x="347" y="634"/>
      <point x="353" y="634" type="curve" smooth="yes"/>
      <point x="361" y="634"/>
      <point x="364" y="631"/>
      <point x="369" y="627" type="curve" smooth="yes"/>
      <point x="390" y="613"/>
      <point x="455" y="545"/>
      <point x="473" y="534" type="curve" smooth="yes"/>
      <point x="480" y="529"/>
      <point x="487" y="522"/>
      <point x="487" y="513" type="curve" smooth="yes"/>
      <point x="487" y="506"/>
      <point x="484" y="501"/>
      <point x="479" y="491" type="curve" smooth="yes"/>
      <point x="468" y="470"/>
      <point x="410" y="403"/>
      <point x="385" y="387" type="curve" smooth="yes"/>
      <point x="382" y="385"/>
      <point x="376" y="383"/>
      <point x="373" y="383" type="curve" smooth="yes"/>
      <point x="369" y="383"/>
      <point x="364" y="385"/>
      <point x="361" y="387" type="curve" smooth="yes"/>
      <point x="333" y="403"/>
      <point x="277" y="457"/>
    </contour>
  </outline>
</glyph>
<glyph name="equal" format="1">
  <advance width="1018"/>
  <unicode hex="003D"/>
  <outline>
    <contour>
      <point x="147" y="835" type="curve"/>
      <point x="123" y="835"/>
      <point x="118" y="824"/>
      <point x="118" y="807" type="curve" smooth="yes"/>
      <point x="118" y="730" type="line" smooth="yes"/>
      <point x="118" y="713"/>
      <point x="123" y="703"/>
      <point x="147" y="703" type="curve" smooth="yes"/>
      <point x="147" y="703"/>
      <point x="443" y="708"/>
      <point x="541" y="708" type="curve" smooth="yes"/>
      <point x="624" y="708"/>
      <point x="871" y="703"/>
      <point x="871" y="703" type="curve"/>
      <point x="894" y="703"/>
      <point x="900" y="713"/>
      <point x="900" y="730" type="curve" smooth="yes"/>
      <point x="900" y="807" type="line" smooth="yes"/>
      <point x="900" y="831"/>
      <point x="891" y="835"/>
      <point x="874" y="835" type="curve" smooth="yes"/>
      <point x="874" y="835"/>
      <point x="640" y="830"/>
      <point x="537" y="830" type="curve" smooth="yes"/>
      <point x="421" y="830"/>
      <point x="147" y="835"/>
    </contour>
    <contour>
      <point x="147" y="446" type="curve"/>
      <point x="123" y="446"/>
      <point x="118" y="436"/>
      <point x="118" y="417" type="curve" smooth="yes"/>
      <point x="118" y="340" type="line" smooth="yes"/>
      <point x="118" y="325"/>
      <point x="123" y="313"/>
      <point x="147" y="313" type="curve" smooth="yes"/>
      <point x="147" y="313"/>
      <point x="443" y="319"/>
      <point x="541" y="319" type="curve" smooth="yes"/>
      <point x="624" y="319"/>
      <point x="871" y="313"/>
      <point x="871" y="313" type="curve"/>
      <point x="894" y="313"/>
      <point x="900" y="325"/>
      <point x="900" y="340" type="curve" smooth="yes"/>
      <point x="900" y="417" type="line" smooth="yes"/>
      <point x="900" y="443"/>
      <point x="886" y="446"/>
      <point x="874" y="446" type="curve" smooth="yes"/>
      <point x="874" y="446"/>
      <point x="640" y="441"/>
      <point x="537" y="441" type="curve" smooth="yes"/>
      <point x="421" y="441"/>
      <point x="147" y="446"/>
    </contour>
  </outline>
</glyph>
<glyph name="question" format="1">
  <advance width="732"/>
  <unicode hex="003F"/>
  <outline>
    <contour>
      <point x="231" y="511" type="curve" smooth="yes"/>
      <point x="231" y="564"/>
      <point x="260" y="607"/>
      <point x="282" y="636" type="curve" smooth="yes"/>
      <point x="353" y="733"/>
      <point x="455" y="833"/>
      <point x="455" y="946" type="curve" smooth="yes"/>
      <point x="455" y="1106"/>
      <point x="298" y="1127"/>
      <point x="149" y="1147" type="curve" smooth="yes"/>
      <point x="135" y="1149"/>
      <point x="129" y="1156"/>
      <point x="129" y="1165" type="curve" smooth="yes"/>
      <point x="129" y="1183"/>
      <point x="208" y="1269"/>
      <point x="226" y="1285" type="curve" smooth="yes"/>
      <point x="235" y="1294"/>
      <point x="244" y="1294"/>
      <point x="255" y="1294" type="curve" smooth="yes"/>
      <point x="294" y="1294"/>
      <point x="405" y="1276"/>
      <point x="479" y="1233" type="curve" smooth="yes"/>
      <point x="550" y="1192"/>
      <point x="606" y="1115"/>
      <point x="606" y="1025" type="curve" smooth="yes"/>
      <point x="606" y="886"/>
      <point x="506" y="765"/>
      <point x="416" y="663" type="curve" smooth="yes"/>
      <point x="389" y="633"/>
      <point x="380" y="602"/>
      <point x="380" y="573" type="curve" smooth="yes"/>
      <point x="380" y="552"/>
      <point x="390" y="516"/>
      <point x="423" y="479" type="curve" smooth="yes"/>
      <point x="431" y="472"/>
      <point x="434" y="464"/>
      <point x="434" y="457" type="curve" smooth="yes"/>
      <point x="434" y="450"/>
      <point x="432" y="448"/>
      <point x="428" y="436" type="curve" smooth="yes"/>
      <point x="421" y="414"/>
      <point x="380" y="359"/>
      <point x="366" y="346" type="curve" smooth="yes"/>
      <point x="359" y="339"/>
      <point x="351" y="337"/>
      <point x="346" y="337" type="curve" smooth="yes"/>
      <point x="339" y="337"/>
      <point x="333" y="340"/>
      <point x="330" y="342" type="curve" smooth="yes"/>
      <point x="285" y="376"/>
      <point x="231" y="441"/>
    </contour>
    <contour>
      <point x="238" y="65" type="curve" smooth="yes"/>
      <point x="233" y="72"/>
      <point x="229" y="81"/>
      <point x="229" y="86" type="curve" smooth="yes"/>
      <point x="229" y="91"/>
      <point x="231" y="97"/>
      <point x="235" y="101" type="curve" smooth="yes"/>
      <point x="269" y="135"/>
      <point x="305" y="176"/>
      <point x="323" y="202" type="curve" smooth="yes"/>
      <point x="328" y="210"/>
      <point x="333" y="212"/>
      <point x="339" y="212" type="curve" smooth="yes"/>
      <point x="346" y="212"/>
      <point x="349" y="208"/>
      <point x="355" y="204" type="curve" smooth="yes"/>
      <point x="376" y="190"/>
      <point x="441" y="122"/>
      <point x="459" y="111" type="curve" smooth="yes"/>
      <point x="466" y="106"/>
      <point x="473" y="99"/>
      <point x="473" y="89" type="curve" smooth="yes"/>
      <point x="473" y="82"/>
      <point x="470" y="79"/>
      <point x="464" y="68" type="curve" smooth="yes"/>
      <point x="453" y="46"/>
      <point x="396" y="-20"/>
      <point x="371" y="-36" type="curve" smooth="yes"/>
      <point x="368" y="-38"/>
      <point x="362" y="-39"/>
      <point x="359" y="-39" type="curve" smooth="yes"/>
      <point x="355" y="-39"/>
      <point x="349" y="-38"/>
      <point x="346" y="-36" type="curve" smooth="yes"/>
      <point x="319" y="-20"/>
      <point x="263" y="34"/>
    </contour>
  </outline>
</glyph>
<glyph name="backslash" format="1">
  <advance width="732"/>
  <unicode hex="005C"/>
  <outline>
    <contour>
      <point x="588" y="-133" type="line"/>
      <point x="597" y="-154"/>
      <point x="604" y="-163"/>
      <point x="613" y="-163" type="curve" smooth="yes"/>
      <point x="620" y="-163"/>
      <point x="631" y="-149"/>
      <point x="633" y="-138" type="curve" smooth="yes"/>
      <point x="638" y="-115"/>
      <point x="648" y="-48"/>
      <point x="648" y="-29" type="curve" smooth="yes"/>
      <point x="648" y="-11"/>
      <point x="640" y="7"/>
      <point x="636" y="14" type="curve" smooth="yes"/>
      <point x="550" y="193"/>
      <point x="470" y="400"/>
      <point x="402" y="573" type="curve" smooth="yes"/>
      <point x="313" y="795"/>
      <point x="192" y="1096"/>
      <point x="149" y="1204" type="curve" smooth="yes"/>
      <point x="145" y="1213"/>
      <point x="138" y="1219"/>
      <point x="131" y="1219" type="curve" smooth="yes"/>
      <point x="122" y="1219"/>
      <point x="115" y="1209"/>
      <point x="109" y="1195" type="curve" smooth="yes"/>
      <point x="99" y="1168"/>
      <point x="93" y="1158"/>
      <point x="86" y="1131" type="curve" smooth="yes"/>
      <point x="84" y="1122"/>
      <point x="81" y="1111"/>
      <point x="81" y="1098" type="curve" smooth="yes"/>
      <point x="81" y="1084"/>
      <point x="97" y="1057"/>
      <point x="106" y="1040" type="curve" smooth="yes"/>
      <point x="166" y="916"/>
      <point x="217" y="807"/>
      <point x="335" y="508" type="curve" smooth="yes"/>
    </contour>
  </outline>
</glyph>
<glyph name="braceleft" format="1">
  <advance width="732"/>
  <unicode hex="007B"/>
  <outline>
    <contour>
      <point x="236" y="506" type="curve" smooth="yes"/>
      <point x="236" y="516"/>
      <point x="248" y="523"/>
      <point x="248" y="523" type="curve"/>
      <point x="317" y="577"/>
      <point x="353" y="611"/>
      <point x="353" y="713" type="curve" smooth="yes"/>
      <point x="353" y="968" type="line" smooth="yes"/>
      <point x="353" y="1029"/>
      <point x="357" y="1096"/>
      <point x="434" y="1115" type="curve" smooth="yes"/>
      <point x="452" y="1118"/>
      <point x="527" y="1134"/>
      <point x="545" y="1140" type="curve" smooth="yes"/>
      <point x="559" y="1144"/>
      <point x="568" y="1152"/>
      <point x="583" y="1168" type="curve" smooth="yes"/>
      <point x="609" y="1199"/>
      <point x="627" y="1221"/>
      <point x="641" y="1240" type="curve" smooth="yes"/>
      <point x="648" y="1251"/>
      <point x="660" y="1264"/>
      <point x="660" y="1278" type="curve" smooth="yes"/>
      <point x="660" y="1285"/>
      <point x="655" y="1291"/>
      <point x="640" y="1291" type="curve" smooth="yes"/>
      <point x="624" y="1291"/>
      <point x="457" y="1276"/>
      <point x="375" y="1260" type="curve" smooth="yes"/>
      <point x="217" y="1229"/>
      <point x="151" y="1124"/>
      <point x="151" y="956" type="curve" smooth="yes"/>
      <point x="151" y="677" type="line" smooth="yes"/>
      <point x="151" y="619"/>
      <point x="151" y="575"/>
      <point x="72" y="539" type="curve" smooth="yes"/>
      <point x="58" y="532"/>
      <point x="52" y="518"/>
      <point x="52" y="506" type="curve" smooth="yes"/>
      <point x="52" y="493"/>
      <point x="58" y="482"/>
      <point x="72" y="475" type="curve" smooth="yes"/>
      <point x="151" y="439"/>
      <point x="151" y="395"/>
      <point x="151" y="335" type="curve" smooth="yes"/>
      <point x="151" y="55" type="line" smooth="yes"/>
      <point x="151" y="-113"/>
      <point x="192" y="-199"/>
      <point x="342" y="-242" type="curve" smooth="yes"/>
      <point x="387" y="-255"/>
      <point x="477" y="-279"/>
      <point x="493" y="-279" type="curve" smooth="yes"/>
      <point x="501" y="-279"/>
      <point x="518" y="-277"/>
      <point x="529" y="-272" type="curve" smooth="yes"/>
      <point x="557" y="-258"/>
      <point x="606" y="-229"/>
      <point x="622" y="-219" type="curve" smooth="yes"/>
      <point x="640" y="-208"/>
      <point x="660" y="-195"/>
      <point x="660" y="-183" type="curve" smooth="yes"/>
      <point x="660" y="-169"/>
      <point x="648" y="-165"/>
      <point x="633" y="-159" type="curve" smooth="yes"/>
      <point x="452" y="-109" type="line" smooth="yes"/>
      <point x="371" y="-86"/>
      <point x="355" y="-31"/>
      <point x="355" y="27" type="curve" smooth="yes"/>
      <point x="355" y="298" type="line" smooth="yes"/>
      <point x="355" y="400"/>
      <point x="317" y="434"/>
      <point x="248" y="487" type="curve"/>
      <point x="248" y="487"/>
      <point x="236" y="493"/>
    </contour>
  </outline>
</glyph>
<glyph name="currency" format="1">
  <advance width="1147"/>
  <unicode hex="00A4"/>
  <outline>
    <contour>
      <point x="536" y="135" type="curve" smooth="yes"/>
      <point x="620" y="135"/>
      <point x="701" y="156"/>
      <point x="767" y="208" type="curve"/>
      <point x="823" y="149"/>
      <point x="884" y="86"/>
      <point x="884" y="86" type="curve"/>
      <point x="893" y="77"/>
      <point x="900" y="74"/>
      <point x="914" y="89" type="curve"/>
      <point x="978" y="152" type="line"/>
      <point x="987" y="163"/>
      <point x="991" y="171"/>
      <point x="978" y="185" type="curve"/>
      <point x="978" y="185"/>
      <point x="914" y="244"/>
      <point x="857" y="299" type="curve"/>
      <point x="901" y="362"/>
      <point x="928" y="436"/>
      <point x="928" y="509" type="curve" smooth="yes"/>
      <point x="928" y="585"/>
      <point x="912" y="648"/>
      <point x="880" y="701" type="curve"/>
      <point x="978" y="794" type="line"/>
      <point x="991" y="809"/>
      <point x="987" y="816"/>
      <point x="978" y="826" type="curve"/>
      <point x="914" y="889" type="line"/>
      <point x="900" y="905"/>
      <point x="893" y="901"/>
      <point x="884" y="891" type="curve"/>
      <point x="884" y="891"/>
      <point x="841" y="844"/>
      <point x="792" y="794" type="curve"/>
      <point x="742" y="830"/>
      <point x="686" y="850"/>
      <point x="619" y="850" type="curve" smooth="yes"/>
      <point x="525" y="850"/>
      <point x="445" y="819"/>
      <point x="380" y="771" type="curve"/>
      <point x="326" y="830"/>
      <point x="263" y="891"/>
      <point x="263" y="891" type="curve"/>
      <point x="255" y="901"/>
      <point x="248" y="905"/>
      <point x="233" y="889" type="curve"/>
      <point x="169" y="826" type="line"/>
      <point x="159" y="816"/>
      <point x="156" y="809"/>
      <point x="169" y="794" type="curve"/>
      <point x="169" y="794"/>
      <point x="235" y="732"/>
      <point x="294" y="677" type="curve"/>
      <point x="255" y="614"/>
      <point x="229" y="537"/>
      <point x="229" y="457" type="curve" smooth="yes"/>
      <point x="229" y="396"/>
      <point x="248" y="337"/>
      <point x="277" y="287" type="curve"/>
      <point x="226" y="236"/>
      <point x="169" y="185"/>
      <point x="169" y="185" type="curve"/>
      <point x="156" y="171"/>
      <point x="159" y="163"/>
      <point x="169" y="152" type="curve"/>
      <point x="233" y="89" type="line"/>
      <point x="248" y="74"/>
      <point x="255" y="77"/>
      <point x="263" y="86" type="curve"/>
      <point x="263" y="86"/>
      <point x="313" y="140"/>
      <point x="368" y="193" type="curve"/>
      <point x="416" y="159"/>
      <point x="475" y="135"/>
    </contour>
    <contour>
      <point x="382" y="506" type="curve" smooth="yes"/>
      <point x="382" y="607"/>
      <point x="441" y="711"/>
      <point x="547" y="711" type="curve" smooth="yes"/>
      <point x="683" y="711"/>
      <point x="771" y="602"/>
      <point x="771" y="472" type="curve" smooth="yes"/>
      <point x="771" y="371"/>
      <point x="708" y="284"/>
      <point x="609" y="284" type="curve" smooth="yes"/>
      <point x="455" y="284"/>
      <point x="382" y="368"/>
    </contour>
  </outline>
</glyph>
<glyph name="degree" format="1">
  <advance width="522"/>
  <unicode hex="00B0"/>
  <outline>
    <contour>
      <point x="0" y="985" type="curve"/>
      <point x="0" y="862"/>
      <point x="63" y="732"/>
      <point x="214" y="732" type="curve" smooth="yes"/>
      <point x="310" y="732"/>
      <point x="371" y="794"/>
      <point x="417" y="846" type="curve"/>
      <point x="468" y="907"/>
      <point x="496" y="987"/>
      <point x="496" y="1077" type="curve" smooth="yes"/>
      <point x="496" y="1170"/>
      <point x="423" y="1289"/>
      <point x="298" y="1291" type="curve" smooth="yes"/>
      <point x="269" y="1291"/>
      <point x="235" y="1283"/>
      <point x="214" y="1271" type="curve" smooth="yes"/>
      <point x="145" y="1231"/>
      <point x="86" y="1183"/>
      <point x="58" y="1138" type="curve" smooth="yes"/>
      <point x="45" y="1118"/>
      <point x="4" y="1075"/>
    </contour>
    <contour>
      <point x="347" y="991" type="curve" smooth="yes"/>
      <point x="347" y="923"/>
      <point x="317" y="894"/>
      <point x="248" y="894" type="curve" smooth="yes"/>
      <point x="193" y="894"/>
      <point x="152" y="956"/>
      <point x="152" y="1021" type="curve" smooth="yes"/>
      <point x="152" y="1082"/>
      <point x="178" y="1136"/>
      <point x="221" y="1136" type="curve" smooth="yes"/>
      <point x="298" y="1136"/>
      <point x="347" y="1065"/>
    </contour>
  </outline>
</glyph>
<glyph name="uni0594" format="1">
  <advance width="0"/>
  <unicode hex="0594"/>
  <outline>
    <contour>
      <point x="344" y="1509" type="curve" smooth="yes"/>
      <point x="344" y="1467"/>
      <point x="312" y="1435"/>
      <point x="270" y="1435" type="curve" smooth="yes"/>
      <point x="231" y="1435"/>
      <point x="199" y="1467"/>
      <point x="199" y="1509" type="curve" smooth="yes"/>
      <point x="199" y="1548"/>
      <point x="231" y="1580"/>
      <point x="270" y="1580" type="curve" smooth="yes"/>
      <point x="312" y="1580"/>
      <point x="344" y="1548"/>
    </contour>
    <contour>
      <point x="344" y="1286" type="curve" smooth="yes"/>
      <point x="344" y="1245"/>
      <point x="312" y="1213"/>
      <point x="270" y="1213" type="curve" smooth="yes"/>
      <point x="231" y="1213"/>
      <point x="199" y="1245"/>
      <point x="199" y="1286" type="curve" smooth="yes"/>
      <point x="199" y="1327"/>
      <point x="231" y="1358"/>
      <point x="270" y="1358" type="curve" smooth="yes"/>
      <point x="312" y="1358"/>
      <point x="344" y="1327"/>
    </contour>
  </outline>
</glyph>
<glyph name="uni05A1" format="1">
  <advance width="0"/>
  <unicode hex="05A1"/>
  <outline>
    <contour>
      <point x="159" y="1544" type="curve" smooth="yes"/>
      <point x="159" y="1399"/>
      <point x="166" y="1229"/>
      <point x="171" y="1202" type="curve" smooth="yes"/>
      <point x="174" y="1181"/>
      <point x="179" y="1175"/>
      <point x="195" y="1175" type="curve" smooth="yes"/>
      <point x="238" y="1175" type="line" smooth="yes"/>
      <point x="255" y="1175"/>
      <point x="260" y="1181"/>
      <point x="263" y="1202" type="curve" smooth="yes"/>
      <point x="263" y="1208"/>
      <point x="267" y="1285"/>
      <point x="267" y="1324" type="curve"/>
      <point x="303" y="1324" type="line" smooth="yes"/>
      <point x="421" y="1324"/>
      <point x="493" y="1421"/>
      <point x="493" y="1552" type="curve" smooth="yes"/>
      <point x="493" y="1570"/>
      <point x="486" y="1575"/>
      <point x="470" y="1575" type="curve" smooth="yes"/>
      <point x="426" y="1575" type="line" smooth="yes"/>
      <point x="410" y="1575"/>
      <point x="393" y="1570"/>
      <point x="393" y="1551" type="curve" smooth="yes"/>
      <point x="390" y="1467"/>
      <point x="361" y="1418"/>
      <point x="303" y="1418" type="curve"/>
      <point x="265" y="1418" type="line"/>
      <point x="265" y="1448"/>
      <point x="267" y="1505"/>
      <point x="267" y="1546" type="curve" smooth="yes"/>
      <point x="267" y="1561"/>
      <point x="260" y="1575"/>
      <point x="240" y="1575" type="curve" smooth="yes"/>
      <point x="185" y="1575" type="line" smooth="yes"/>
      <point x="163" y="1575"/>
      <point x="159" y="1559"/>
    </contour>
  </outline>
</glyph>
<glyph name="uni05A4" format="1">
  <advance width="0"/>
  <unicode hex="05A4"/>
  <outline>
    <contour>
      <point x="371" y="-125" type="curve" smooth="yes"/>
      <point x="267" y="-208"/>
      <point x="212" y="-263"/>
      <point x="188" y="-289" type="curve" smooth="yes"/>
      <point x="183" y="-294"/>
      <point x="181" y="-299"/>
      <point x="181" y="-303" type="curve" smooth="yes"/>
      <point x="181" y="-308"/>
      <point x="185" y="-313"/>
      <point x="188" y="-317" type="curve" smooth="yes"/>
      <point x="215" y="-346"/>
      <point x="287" y="-414"/>
      <point x="371" y="-479" type="curve" smooth="yes"/>
      <point x="378" y="-484"/>
      <point x="385" y="-487"/>
      <point x="390" y="-487" type="curve" smooth="yes"/>
      <point x="398" y="-487"/>
      <point x="403" y="-482"/>
      <point x="409" y="-475" type="curve" smooth="yes"/>
      <point x="432" y="-446" type="line" smooth="yes"/>
      <point x="436" y="-443"/>
      <point x="441" y="-434"/>
      <point x="441" y="-431" type="curve" smooth="yes"/>
      <point x="441" y="-421"/>
      <point x="432" y="-416"/>
      <point x="421" y="-405" type="curve"/>
      <point x="313" y="-303" type="line"/>
      <point x="362" y="-253"/>
      <point x="369" y="-251"/>
      <point x="426" y="-190" type="curve" smooth="yes"/>
      <point x="436" y="-181"/>
      <point x="439" y="-176"/>
      <point x="439" y="-171" type="curve" smooth="yes"/>
      <point x="439" y="-166"/>
      <point x="436" y="-161"/>
      <point x="432" y="-158" type="curve" smooth="yes"/>
      <point x="407" y="-127" type="line" smooth="yes"/>
      <point x="402" y="-120"/>
      <point x="398" y="-116"/>
      <point x="390" y="-116" type="curve" smooth="yes"/>
      <point x="385" y="-116"/>
      <point x="378" y="-120"/>
    </contour>
  </outline>
</glyph>
<glyph name="uni05A9" format="1">
  <advance width="0"/>
  <unicode hex="05A9"/>
  <outline>
    <contour>
      <point x="123" y="1441" type="curve" smooth="yes"/>
      <point x="123" y="1334"/>
      <point x="208" y="1249"/>
      <point x="315" y="1249" type="curve" smooth="yes"/>
      <point x="337" y="1249"/>
      <point x="359" y="1253"/>
      <point x="378" y="1258" type="curve"/>
      <point x="407" y="1224"/>
      <point x="441" y="1183"/>
      <point x="452" y="1172" type="curve" smooth="yes"/>
      <point x="460" y="1163"/>
      <point x="468" y="1159"/>
      <point x="473" y="1159" type="curve" smooth="yes"/>
      <point x="479" y="1159"/>
      <point x="482" y="1161"/>
      <point x="487" y="1165" type="curve" smooth="yes"/>
      <point x="520" y="1187" type="line" smooth="yes"/>
      <point x="527" y="1192"/>
      <point x="532" y="1197"/>
      <point x="532" y="1204" type="curve" smooth="yes"/>
      <point x="532" y="1209"/>
      <point x="529" y="1217"/>
      <point x="525" y="1224" type="curve" smooth="yes"/>
      <point x="523" y="1229"/>
      <point x="493" y="1279"/>
      <point x="468" y="1320" type="curve"/>
      <point x="494" y="1353"/>
      <point x="509" y="1394"/>
      <point x="509" y="1441" type="curve" smooth="yes"/>
      <point x="509" y="1548"/>
      <point x="423" y="1635"/>
      <point x="315" y="1635" type="curve" smooth="yes"/>
      <point x="208" y="1635"/>
      <point x="123" y="1548"/>
    </contour>
    <contour>
      <point x="212" y="1441" type="curve" smooth="yes"/>
      <point x="212" y="1498"/>
      <point x="258" y="1544"/>
      <point x="313" y="1544" type="curve" smooth="yes"/>
      <point x="371" y="1544"/>
      <point x="417" y="1498"/>
      <point x="417" y="1441" type="curve" smooth="yes"/>
      <point x="417" y="1385"/>
      <point x="371" y="1339"/>
      <point x="313" y="1339" type="curve" smooth="yes"/>
      <point x="258" y="1339"/>
      <point x="212" y="1385"/>
    </contour>
  </outline>
</glyph>
<glyph name="shevahebrew" format="1">
  <advance width="0"/>
  <unicode hex="05B0"/>
  <outline>
    <contour>
      <point x="438" y="-190" type="curve" smooth="yes"/>
      <point x="438" y="-231"/>
      <point x="405" y="-263"/>
      <point x="364" y="-263" type="curve" smooth="yes"/>
      <point x="325" y="-263"/>
      <point x="292" y="-231"/>
      <point x="292" y="-190" type="curve" smooth="yes"/>
      <point x="292" y="-151"/>
      <point x="325" y="-118"/>
      <point x="364" y="-118" type="curve" smooth="yes"/>
      <point x="405" y="-118"/>
      <point x="438" y="-151"/>
    </contour>
    <contour>
      <point x="438" y="-412" type="curve" smooth="yes"/>
      <point x="438" y="-453"/>
      <point x="405" y="-486"/>
      <point x="364" y="-486" type="curve" smooth="yes"/>
      <point x="325" y="-486"/>
      <point x="292" y="-453"/>
      <point x="292" y="-412" type="curve" smooth="yes"/>
      <point x="292" y="-373"/>
      <point x="325" y="-340"/>
      <point x="364" y="-340" type="curve" smooth="yes"/>
      <point x="405" y="-340"/>
      <point x="438" y="-373"/>
    </contour>
  </outline>
</glyph>
<glyph name="hatafqamatshebrew" format="1">
  <advance width="0"/>
  <unicode hex="05B3"/>
  <outline>
    <contour>
      <point x="172" y="-251" type="curve" smooth="yes"/>
      <point x="122" y="-248"/>
      <point x="95" y="-244"/>
      <point x="74" y="-240" type="curve" smooth="yes"/>
      <point x="55" y="-236"/>
      <point x="45" y="-235"/>
      <point x="45" y="-215" type="curve" smooth="yes"/>
      <point x="45" y="-169" type="line" smooth="yes"/>
      <point x="45" y="-154"/>
      <point x="52" y="-138"/>
      <point x="74" y="-138" type="curve" smooth="yes"/>
      <point x="101" y="-137"/>
      <point x="249" y="-131"/>
      <point x="249" y="-131" type="curve" smooth="yes"/>
      <point x="319" y="-131"/>
      <point x="403" y="-138"/>
      <point x="426" y="-138" type="curve" smooth="yes"/>
      <point x="446" y="-138"/>
      <point x="453" y="-154"/>
      <point x="453" y="-169" type="curve" smooth="yes"/>
      <point x="453" y="-215" type="line" smooth="yes"/>
      <point x="453" y="-229"/>
      <point x="445" y="-236"/>
      <point x="426" y="-240" type="curve" smooth="yes"/>
      <point x="407" y="-244"/>
      <point x="373" y="-248"/>
      <point x="328" y="-251" type="curve" smooth="yes"/>
      <point x="317" y="-251"/>
      <point x="313" y="-256"/>
      <point x="312" y="-272" type="curve" smooth="yes"/>
      <point x="308" y="-299"/>
      <point x="298" y="-441"/>
      <point x="296" y="-452" type="curve" smooth="yes"/>
      <point x="292" y="-473"/>
      <point x="285" y="-479"/>
      <point x="269" y="-479" type="curve" smooth="yes"/>
      <point x="231" y="-479" type="line" smooth="yes"/>
      <point x="215" y="-479"/>
      <point x="210" y="-473"/>
      <point x="207" y="-452" type="curve" smooth="yes"/>
      <point x="202" y="-424"/>
      <point x="193" y="-301"/>
      <point x="190" y="-272" type="curve" smooth="yes"/>
      <point x="188" y="-253"/>
      <point x="179" y="-251"/>
    </contour>
    <contour>
      <point x="611" y="-116" type="curve" smooth="yes"/>
      <point x="570" y="-116"/>
      <point x="536" y="-149"/>
      <point x="536" y="-190" type="curve" smooth="yes"/>
      <point x="536" y="-231"/>
      <point x="570" y="-263"/>
      <point x="611" y="-263" type="curve" smooth="yes"/>
      <point x="650" y="-263"/>
      <point x="683" y="-231"/>
      <point x="683" y="-190" type="curve" smooth="yes"/>
      <point x="683" y="-149"/>
      <point x="650" y="-116"/>
    </contour>
    <contour>
      <point x="614" y="-339" type="curve" smooth="yes"/>
      <point x="573" y="-339"/>
      <point x="539" y="-371"/>
      <point x="539" y="-412" type="curve" smooth="yes"/>
      <point x="539" y="-453"/>
      <point x="573" y="-486"/>
      <point x="614" y="-486" type="curve" smooth="yes"/>
      <point x="655" y="-486"/>
      <point x="686" y="-453"/>
      <point x="686" y="-412" type="curve" smooth="yes"/>
      <point x="686" y="-371"/>
      <point x="655" y="-339"/>
    </contour>
  </outline>
</glyph>
<glyph name="qamatshebrew" format="1">
  <advance width="0"/>
  <unicode hex="05B8"/>
  <outline>
    <contour>
      <point x="289" y="-255" type="curve" smooth="yes"/>
      <point x="229" y="-251"/>
      <point x="149" y="-249"/>
      <point x="129" y="-248" type="curve" smooth="yes"/>
      <point x="111" y="-246"/>
      <point x="104" y="-235"/>
      <point x="104" y="-217" type="curve" smooth="yes"/>
      <point x="104" y="-166" type="line" smooth="yes"/>
      <point x="104" y="-152"/>
      <point x="108" y="-138"/>
      <point x="129" y="-138" type="curve" smooth="yes"/>
      <point x="207" y="-137"/>
      <point x="291" y="-131"/>
      <point x="366" y="-131" type="curve" smooth="yes"/>
      <point x="436" y="-131"/>
      <point x="579" y="-138"/>
      <point x="602" y="-138" type="curve" smooth="yes"/>
      <point x="622" y="-138"/>
      <point x="629" y="-152"/>
      <point x="629" y="-166" type="curve" smooth="yes"/>
      <point x="629" y="-217" type="line" smooth="yes"/>
      <point x="629" y="-231"/>
      <point x="620" y="-244"/>
      <point x="602" y="-248" type="curve" smooth="yes"/>
      <point x="583" y="-251"/>
      <point x="506" y="-253"/>
      <point x="446" y="-255" type="curve" smooth="yes"/>
      <point x="434" y="-255"/>
      <point x="432" y="-262"/>
      <point x="431" y="-277" type="curve" smooth="yes"/>
      <point x="426" y="-305"/>
      <point x="416" y="-443"/>
      <point x="414" y="-453" type="curve" smooth="yes"/>
      <point x="410" y="-475"/>
      <point x="405" y="-480"/>
      <point x="389" y="-480" type="curve" smooth="yes"/>
      <point x="346" y="-480" type="line" smooth="yes"/>
      <point x="330" y="-480"/>
      <point x="325" y="-475"/>
      <point x="321" y="-453" type="curve" smooth="yes"/>
      <point x="317" y="-426"/>
      <point x="308" y="-306"/>
      <point x="305" y="-277" type="curve" smooth="yes"/>
      <point x="303" y="-258"/>
      <point x="296" y="-255"/>
    </contour>
  </outline>
</glyph>
<glyph name="afii57839" format="1">
  <advance width="0"/>
  <unicode hex="05BD"/>
  <outline>
    <contour>
      <point x="310" y="-163" type="curve" smooth="yes"/>
      <point x="310" y="-149"/>
      <point x="313" y="-133"/>
      <point x="335" y="-133" type="curve" smooth="yes"/>
      <point x="398" y="-133" type="line" smooth="yes"/>
      <point x="417" y="-133"/>
      <point x="424" y="-147"/>
      <point x="424" y="-161" type="curve" smooth="yes"/>
      <point x="424" y="-306"/>
      <point x="416" y="-445"/>
      <point x="414" y="-455" type="curve" smooth="yes"/>
      <point x="410" y="-477"/>
      <point x="405" y="-482"/>
      <point x="389" y="-482" type="curve" smooth="yes"/>
      <point x="346" y="-482" type="line" smooth="yes"/>
      <point x="330" y="-482"/>
      <point x="325" y="-477"/>
      <point x="321" y="-455" type="curve" smooth="yes"/>
      <point x="317" y="-428"/>
      <point x="310" y="-308"/>
    </contour>
  </outline>
</glyph>
<glyph name="dalethebrew" format="1">
  <advance width="1016"/>
  <unicode hex="05D3"/>
  <outline>
    <contour>
      <point x="585" y="774" type="curve" smooth="yes"/>
      <point x="585" y="797"/>
      <point x="577" y="821"/>
      <point x="552" y="821" type="curve" smooth="yes"/>
      <point x="104" y="821" type="line" smooth="yes"/>
      <point x="79" y="821"/>
      <point x="63" y="835"/>
      <point x="63" y="851" type="curve" smooth="yes"/>
      <point x="63" y="874"/>
      <point x="181" y="1043"/>
      <point x="204" y="1070" type="curve" smooth="yes"/>
      <point x="210" y="1077"/>
      <point x="219" y="1081"/>
      <point x="226" y="1081" type="curve" smooth="yes"/>
      <point x="240" y="1081"/>
      <point x="246" y="1065"/>
      <point x="248" y="1050" type="curve" smooth="yes"/>
      <point x="255" y="1004"/>
      <point x="270" y="989"/>
      <point x="296" y="989" type="curve" smooth="yes"/>
      <point x="570" y="989" type="line" smooth="yes"/>
      <point x="575" y="989"/>
      <point x="581" y="991"/>
      <point x="586" y="998" type="curve" smooth="yes"/>
      <point x="613" y="1031"/>
      <point x="677" y="1081"/>
      <point x="708" y="1081" type="curve" smooth="yes"/>
      <point x="724" y="1081"/>
      <point x="727" y="1072"/>
      <point x="727" y="1061" type="curve" smooth="yes"/>
      <point x="727" y="1047"/>
      <point x="730" y="1012"/>
      <point x="740" y="1002" type="curve" smooth="yes"/>
      <point x="747" y="993"/>
      <point x="761" y="989"/>
      <point x="780" y="989" type="curve" smooth="yes"/>
      <point x="860" y="989" type="line" smooth="yes"/>
      <point x="869" y="989"/>
      <point x="891" y="985"/>
      <point x="891" y="966" type="curve" smooth="yes"/>
      <point x="891" y="963"/>
      <point x="889" y="956"/>
      <point x="887" y="949" type="curve" smooth="yes"/>
      <point x="872" y="918"/>
      <point x="846" y="864"/>
      <point x="824" y="833" type="curve" smooth="yes"/>
      <point x="819" y="824"/>
      <point x="812" y="821"/>
      <point x="799" y="821" type="curve" smooth="yes"/>
      <point x="753" y="821"/>
      <point x="732" y="787"/>
      <point x="730" y="756" type="curve" smooth="yes"/>
      <point x="727" y="733"/>
      <point x="727" y="696"/>
      <point x="727" y="656" type="curve" smooth="yes"/>
      <point x="727" y="470"/>
      <point x="747" y="208"/>
      <point x="747" y="149" type="curve" smooth="yes"/>
      <point x="747" y="125"/>
      <point x="744" y="109"/>
      <point x="735" y="93" type="curve" smooth="yes"/>
      <point x="710" y="45"/>
      <point x="694" y="20"/>
      <point x="660" y="-31" type="curve" smooth="yes"/>
      <point x="655" y="-38"/>
      <point x="645" y="-46"/>
      <point x="638" y="-46" type="curve" smooth="yes"/>
      <point x="629" y="-46"/>
      <point x="626" y="-36"/>
      <point x="624" y="-20" type="curve" smooth="yes"/>
      <point x="602" y="244"/>
      <point x="592" y="513"/>
    </contour>
  </outline>
</glyph>
<glyph name="vavhebrew" format="1">
  <advance width="730"/>
  <unicode hex="05D5"/>
  <outline>
    <contour>
      <point x="419" y="631" type="curve" smooth="yes"/>
      <point x="416" y="665"/>
      <point x="407" y="696"/>
      <point x="371" y="730" type="curve" smooth="yes"/>
      <point x="303" y="790"/>
      <point x="178" y="864"/>
      <point x="108" y="898" type="curve" smooth="yes"/>
      <point x="97" y="905"/>
      <point x="89" y="910"/>
      <point x="89" y="921" type="curve" smooth="yes"/>
      <point x="89" y="928"/>
      <point x="95" y="935"/>
      <point x="101" y="944" type="curve" smooth="yes"/>
      <point x="129" y="989"/>
      <point x="188" y="1057"/>
      <point x="202" y="1072" type="curve" smooth="yes"/>
      <point x="208" y="1077"/>
      <point x="212" y="1081"/>
      <point x="217" y="1081" type="curve" smooth="yes"/>
      <point x="222" y="1081"/>
      <point x="229" y="1077"/>
      <point x="240" y="1072" type="curve" smooth="yes"/>
      <point x="303" y="1040"/>
      <point x="383" y="989"/>
      <point x="473" y="914" type="curve" smooth="yes"/>
      <point x="539" y="858"/>
      <point x="557" y="797"/>
      <point x="563" y="739" type="curve" smooth="yes"/>
      <point x="566" y="699"/>
      <point x="571" y="559"/>
      <point x="571" y="470" type="curve" smooth="yes"/>
      <point x="571" y="361"/>
      <point x="571" y="233"/>
      <point x="566" y="116" type="curve" smooth="yes"/>
      <point x="566" y="102"/>
      <point x="559" y="88"/>
      <point x="554" y="77" type="curve" smooth="yes"/>
      <point x="530" y="34"/>
      <point x="482" y="-25"/>
      <point x="464" y="-41" type="curve" smooth="yes"/>
      <point x="459" y="-45"/>
      <point x="455" y="-46"/>
      <point x="452" y="-46" type="curve" smooth="yes"/>
      <point x="443" y="-46"/>
      <point x="438" y="-38"/>
      <point x="438" y="-31" type="curve" smooth="yes"/>
      <point x="438" y="131"/>
      <point x="436" y="472"/>
    </contour>
  </outline>
</glyph>
<glyph name="tethebrew" format="1">
  <advance width="1301"/>
  <unicode hex="05D8"/>
  <outline>
    <contour>
      <point x="339" y="185" type="curve" smooth="yes"/>
      <point x="332" y="210"/>
      <point x="263" y="491"/>
      <point x="249" y="549" type="curve" smooth="yes"/>
      <point x="231" y="624"/>
      <point x="179" y="803"/>
      <point x="108" y="910" type="curve" smooth="yes"/>
      <point x="104" y="916"/>
      <point x="102" y="921"/>
      <point x="102" y="925" type="curve" smooth="yes"/>
      <point x="102" y="930"/>
      <point x="104" y="934"/>
      <point x="113" y="946" type="curve" smooth="yes"/>
      <point x="138" y="980"/>
      <point x="179" y="1031"/>
      <point x="226" y="1074" type="curve" smooth="yes"/>
      <point x="229" y="1077"/>
      <point x="233" y="1079"/>
      <point x="238" y="1079" type="curve" smooth="yes"/>
      <point x="244" y="1079"/>
      <point x="251" y="1075"/>
      <point x="256" y="1067" type="curve" smooth="yes"/>
      <point x="315" y="963"/>
      <point x="353" y="799"/>
      <point x="373" y="697" type="curve" smooth="yes"/>
      <point x="387" y="624"/>
      <point x="426" y="369"/>
      <point x="455" y="277" type="curve" smooth="yes"/>
      <point x="470" y="235"/>
      <point x="487" y="186"/>
      <point x="513" y="171" type="curve" smooth="yes"/>
      <point x="547" y="151"/>
      <point x="579" y="149"/>
      <point x="626" y="149" type="curve" smooth="yes"/>
      <point x="727" y="149"/>
      <point x="880" y="193"/>
      <point x="937" y="242" type="curve" smooth="yes"/>
      <point x="1038" y="323"/>
      <point x="1074" y="453"/>
      <point x="1074" y="573" type="curve" smooth="yes"/>
      <point x="1074" y="735"/>
      <point x="980" y="867"/>
      <point x="812" y="867" type="curve" smooth="yes"/>
      <point x="706" y="867"/>
      <point x="631" y="807"/>
      <point x="585" y="769" type="curve" smooth="yes"/>
      <point x="570" y="758"/>
      <point x="563" y="756"/>
      <point x="557" y="756" type="curve" smooth="yes"/>
      <point x="547" y="756"/>
      <point x="537" y="763"/>
      <point x="537" y="773" type="curve" smooth="yes"/>
      <point x="537" y="787"/>
      <point x="595" y="916"/>
      <point x="606" y="932" type="curve" smooth="yes"/>
      <point x="609" y="937"/>
      <point x="614" y="949"/>
      <point x="631" y="961" type="curve" smooth="yes"/>
      <point x="701" y="1005"/>
      <point x="776" y="1040"/>
      <point x="874" y="1040" type="curve" smooth="yes"/>
      <point x="1075" y="1040"/>
      <point x="1204" y="850"/>
      <point x="1204" y="658" type="curve" smooth="yes"/>
      <point x="1204" y="500"/>
      <point x="1154" y="387"/>
      <point x="1070" y="260" type="curve" smooth="yes"/>
      <point x="954" y="84"/>
      <point x="763" y="-31"/>
      <point x="550" y="-31" type="curve" smooth="yes"/>
      <point x="475" y="-31"/>
      <point x="421" y="-5"/>
      <point x="389" y="48" type="curve" smooth="yes"/>
      <point x="368" y="84"/>
      <point x="355" y="122"/>
    </contour>
  </outline>
</glyph>
<glyph name="yodhebrew" format="1">
  <advance width="730"/>
  <unicode hex="05D9"/>
  <outline>
    <contour>
      <point x="426" y="626" type="curve" smooth="yes"/>
      <point x="426" y="643"/>
      <point x="419" y="672"/>
      <point x="390" y="701" type="curve" smooth="yes"/>
      <point x="342" y="751"/>
      <point x="186" y="848"/>
      <point x="101" y="889" type="curve" smooth="yes"/>
      <point x="93" y="893"/>
      <point x="89" y="898"/>
      <point x="89" y="903" type="curve" smooth="yes"/>
      <point x="89" y="907"/>
      <point x="91" y="912"/>
      <point x="93" y="916" type="curve" smooth="yes"/>
      <point x="99" y="927"/>
      <point x="171" y="1047"/>
      <point x="199" y="1074" type="curve" smooth="yes"/>
      <point x="204" y="1079"/>
      <point x="208" y="1081"/>
      <point x="214" y="1081" type="curve" smooth="yes"/>
      <point x="217" y="1081"/>
      <point x="219" y="1079"/>
      <point x="222" y="1077" type="curve" smooth="yes"/>
      <point x="340" y="1012"/>
      <point x="500" y="907"/>
      <point x="563" y="841" type="curve" smooth="yes"/>
      <point x="606" y="794"/>
      <point x="614" y="751"/>
      <point x="614" y="713" type="curve" smooth="yes"/>
      <point x="614" y="641"/>
      <point x="536" y="522"/>
      <point x="464" y="416" type="curve" smooth="yes"/>
      <point x="446" y="389"/>
      <point x="436" y="383"/>
      <point x="428" y="376" type="curve" smooth="yes"/>
      <point x="409" y="359"/>
      <point x="321" y="289"/>
      <point x="296" y="289" type="curve" smooth="yes"/>
      <point x="287" y="289"/>
      <point x="284" y="296"/>
      <point x="284" y="303" type="curve" smooth="yes"/>
      <point x="284" y="305"/>
      <point x="285" y="312"/>
      <point x="291" y="321" type="curve" smooth="yes"/>
      <point x="328" y="385"/>
      <point x="426" y="554"/>
    </contour>
  </outline>
</glyph>
<glyph name="kafhebrew" format="1">
  <advance width="1016"/>
  <unicode hex="05DB"/>
  <outline>
    <contour>
      <point x="79" y="27" type="curve" smooth="yes"/>
      <point x="93" y="50"/>
      <point x="165" y="147"/>
      <point x="172" y="156" type="curve" smooth="yes"/>
      <point x="179" y="163"/>
      <point x="183" y="166"/>
      <point x="199" y="166" type="curve" smooth="yes"/>
      <point x="221" y="166"/>
      <point x="561" y="169"/>
      <point x="627" y="169" type="curve" smooth="yes"/>
      <point x="663" y="169"/>
      <point x="704" y="179"/>
      <point x="732" y="229" type="curve" smooth="yes"/>
      <point x="765" y="292"/>
      <point x="773" y="405"/>
      <point x="773" y="477" type="curve" smooth="yes"/>
      <point x="773" y="665"/>
      <point x="670" y="823"/>
      <point x="487" y="823" type="curve" smooth="yes"/>
      <point x="123" y="823" type="line" smooth="yes"/>
      <point x="99" y="823"/>
      <point x="72" y="828"/>
      <point x="72" y="848" type="curve" smooth="yes"/>
      <point x="72" y="853"/>
      <point x="74" y="858"/>
      <point x="77" y="865" type="curve" smooth="yes"/>
      <point x="106" y="921"/>
      <point x="192" y="1034"/>
      <point x="221" y="1068" type="curve" smooth="yes"/>
      <point x="228" y="1077"/>
      <point x="235" y="1081"/>
      <point x="244" y="1081" type="curve" smooth="yes"/>
      <point x="255" y="1081"/>
      <point x="265" y="1074"/>
      <point x="269" y="1062" type="curve" smooth="yes"/>
      <point x="272" y="1047"/>
      <point x="282" y="1011"/>
      <point x="294" y="1002" type="curve" smooth="yes"/>
      <point x="308" y="991"/>
      <point x="332" y="989"/>
      <point x="349" y="989" type="curve" smooth="yes"/>
      <point x="522" y="989" type="line" smooth="yes"/>
      <point x="758" y="989"/>
      <point x="910" y="817"/>
      <point x="910" y="552" type="curve" smooth="yes"/>
      <point x="910" y="493"/>
      <point x="898" y="426"/>
      <point x="882" y="382" type="curve" smooth="yes"/>
      <point x="841" y="262"/>
      <point x="746" y="109"/>
      <point x="655" y="25" type="curve" smooth="yes"/>
      <point x="641" y="14"/>
      <point x="624" y="0"/>
      <point x="602" y="0" type="curve" smooth="yes"/>
      <point x="91" y="0" type="line" smooth="yes"/>
      <point x="82" y="0"/>
      <point x="75" y="5"/>
      <point x="75" y="14" type="curve" smooth="yes"/>
      <point x="75" y="18"/>
      <point x="77" y="24"/>
    </contour>
  </outline>
</glyph>
<glyph name="tsadihebrew" format="1">
  <advance width="1016"/>
  <unicode hex="05E6"/>
  <outline>
    <contour>
      <point x="151" y="144" type="curve" smooth="yes"/>
      <point x="161" y="158"/>
      <point x="171" y="171"/>
      <point x="192" y="171" type="curve"/>
      <point x="710" y="171" type="line"/>
      <point x="735" y="171"/>
      <point x="740" y="178"/>
      <point x="740" y="192" type="curve" smooth="yes"/>
      <point x="740" y="200"/>
      <point x="739" y="215"/>
      <point x="725" y="228" type="curve" smooth="yes"/>
      <point x="647" y="313"/>
      <point x="539" y="405"/>
      <point x="487" y="453" type="curve" smooth="yes"/>
      <point x="464" y="477"/>
      <point x="255" y="665"/>
      <point x="215" y="706" type="curve" smooth="yes"/>
      <point x="171" y="754"/>
      <point x="123" y="805"/>
      <point x="72" y="896" type="curve" smooth="yes"/>
      <point x="68" y="901"/>
      <point x="67" y="905"/>
      <point x="67" y="908" type="curve" smooth="yes"/>
      <point x="67" y="916"/>
      <point x="72" y="923"/>
      <point x="72" y="923" type="curve" smooth="yes"/>
      <point x="127" y="1007"/>
      <point x="152" y="1033"/>
      <point x="185" y="1072" type="curve" smooth="yes"/>
      <point x="188" y="1075"/>
      <point x="195" y="1081"/>
      <point x="199" y="1081" type="curve" smooth="yes"/>
      <point x="204" y="1081"/>
      <point x="212" y="1077"/>
      <point x="215" y="1068" type="curve" smooth="yes"/>
      <point x="251" y="978"/>
      <point x="296" y="901"/>
      <point x="351" y="824" type="curve" smooth="yes"/>
      <point x="419" y="733"/>
      <point x="506" y="650"/>
      <point x="595" y="579" type="curve" smooth="yes"/>
      <point x="604" y="571"/>
      <point x="609" y="570"/>
      <point x="617" y="570" type="curve" smooth="yes"/>
      <point x="631" y="570"/>
      <point x="643" y="583"/>
      <point x="655" y="600" type="curve" smooth="yes"/>
      <point x="672" y="633"/>
      <point x="694" y="683"/>
      <point x="694" y="774" type="curve" smooth="yes"/>
      <point x="694" y="826"/>
      <point x="677" y="872"/>
      <point x="674" y="880" type="curve" smooth="yes"/>
      <point x="670" y="889"/>
      <point x="667" y="896"/>
      <point x="667" y="901" type="curve" smooth="yes"/>
      <point x="667" y="908"/>
      <point x="670" y="914"/>
      <point x="674" y="920" type="curve" smooth="yes"/>
      <point x="701" y="957"/>
      <point x="763" y="1036"/>
      <point x="797" y="1070" type="curve" smooth="yes"/>
      <point x="805" y="1077"/>
      <point x="809" y="1081"/>
      <point x="814" y="1081" type="curve" smooth="yes"/>
      <point x="821" y="1081"/>
      <point x="826" y="1074"/>
      <point x="830" y="1067" type="curve" smooth="yes"/>
      <point x="848" y="1033"/>
      <point x="876" y="966"/>
      <point x="876" y="869" type="curve" smooth="yes"/>
      <point x="876" y="756"/>
      <point x="809" y="629"/>
      <point x="708" y="515" type="curve" smooth="yes"/>
      <point x="704" y="511"/>
      <point x="699" y="501"/>
      <point x="699" y="493" type="curve" smooth="yes"/>
      <point x="699" y="489"/>
      <point x="699" y="484"/>
      <point x="703" y="480" type="curve" smooth="yes"/>
      <point x="788" y="403"/>
      <point x="853" y="340"/>
      <point x="874" y="312" type="curve" smooth="yes"/>
      <point x="893" y="289"/>
      <point x="898" y="263"/>
      <point x="898" y="246" type="curve" smooth="yes"/>
      <point x="898" y="226"/>
      <point x="891" y="199"/>
      <point x="876" y="172" type="curve" smooth="yes"/>
      <point x="860" y="144"/>
      <point x="833" y="86"/>
      <point x="794" y="31" type="curve" smooth="yes"/>
      <point x="774" y="2"/>
      <point x="761" y="0"/>
      <point x="733" y="0" type="curve" smooth="yes"/>
      <point x="89" y="0" type="line"/>
      <point x="68" y="0"/>
      <point x="61" y="9"/>
      <point x="61" y="18" type="curve" smooth="yes"/>
      <point x="61" y="22"/>
      <point x="65" y="29"/>
      <point x="67" y="31" type="curve" smooth="yes"/>
      <point x="106" y="89"/>
      <point x="118" y="101"/>
    </contour>
  </outline>
</glyph>
<glyph name="reshhebrew" format="1">
  <advance width="1016"/>
  <unicode hex="05E8"/>
  <outline>
    <contour>
      <point x="717" y="586" type="curve" smooth="yes"/>
      <point x="692" y="735"/>
      <point x="600" y="821"/>
      <point x="473" y="821" type="curve"/>
      <point x="116" y="821" type="line"/>
      <point x="88" y="821"/>
      <point x="68" y="833"/>
      <point x="68" y="851" type="curve" smooth="yes"/>
      <point x="68" y="857"/>
      <point x="70" y="862"/>
      <point x="74" y="867" type="curve" smooth="yes"/>
      <point x="86" y="891"/>
      <point x="185" y="1034"/>
      <point x="217" y="1068" type="curve" smooth="yes"/>
      <point x="222" y="1074"/>
      <point x="233" y="1081"/>
      <point x="242" y="1081" type="curve" smooth="yes"/>
      <point x="253" y="1081"/>
      <point x="262" y="1075"/>
      <point x="267" y="1057" type="curve" smooth="yes"/>
      <point x="279" y="1005"/>
      <point x="276" y="991"/>
      <point x="333" y="991" type="curve" smooth="yes"/>
      <point x="541" y="991" type="line"/>
      <point x="629" y="991"/>
      <point x="765" y="942"/>
      <point x="831" y="749" type="curve" smooth="yes"/>
      <point x="879" y="614"/>
      <point x="882" y="332"/>
      <point x="882" y="151" type="curve" smooth="yes"/>
      <point x="882" y="131"/>
      <point x="882" y="123"/>
      <point x="876" y="108" type="curve" smooth="yes"/>
      <point x="860" y="68"/>
      <point x="833" y="9"/>
      <point x="803" y="-34" type="curve" smooth="yes"/>
      <point x="795" y="-43"/>
      <point x="788" y="-46"/>
      <point x="781" y="-46" type="curve" smooth="yes"/>
      <point x="771" y="-46"/>
      <point x="763" y="-36"/>
      <point x="761" y="-22" type="curve" smooth="yes"/>
      <point x="749" y="147"/>
      <point x="749" y="405"/>
    </contour>
  </outline>
</glyph>
<glyph name="uni05F3" format="1">
  <advance width="511"/>
  <unicode hex="05F3"/>
  <outline>
    <contour>
      <point x="306" y="1180" type="curve" smooth="yes"/>
      <point x="310" y="1183"/>
      <point x="315" y="1187"/>
      <point x="325" y="1187" type="curve" smooth="yes"/>
      <point x="362" y="1187" type="line" smooth="yes"/>
      <point x="385" y="1187"/>
      <point x="387" y="1145"/>
      <point x="387" y="1120" type="curve" smooth="yes"/>
      <point x="387" y="1077"/>
      <point x="357" y="1029"/>
      <point x="339" y="1004" type="curve" smooth="yes"/>
      <point x="312" y="963"/>
      <point x="115" y="799"/>
      <point x="77" y="799" type="curve" smooth="yes"/>
      <point x="63" y="799"/>
      <point x="53" y="812"/>
      <point x="53" y="824" type="curve" smooth="yes"/>
      <point x="53" y="830"/>
      <point x="58" y="835"/>
      <point x="60" y="838" type="curve" smooth="yes"/>
      <point x="104" y="907"/>
      <point x="244" y="1113"/>
    </contour>
  </outline>
</glyph>
<glyph name="quotedblleft" format="1">
  <advance width="1007"/>
  <unicode hex="201C"/>
  <outline>
    <contour>
      <point x="865" y="1061" type="curve" smooth="yes"/>
      <point x="841" y="991"/>
      <point x="794" y="876"/>
      <point x="780" y="801" type="curve" smooth="yes"/>
      <point x="769" y="740"/>
      <point x="765" y="686"/>
      <point x="765" y="655" type="curve" smooth="yes"/>
      <point x="765" y="636"/>
      <point x="758" y="626"/>
      <point x="749" y="613" type="curve" smooth="yes"/>
      <point x="724" y="579"/>
      <point x="641" y="501"/>
      <point x="592" y="472" type="curve" smooth="yes"/>
      <point x="579" y="464"/>
      <point x="564" y="457"/>
      <point x="549" y="457" type="curve" smooth="yes"/>
      <point x="530" y="459"/>
      <point x="503" y="516"/>
      <point x="503" y="593" type="curve" smooth="yes"/>
      <point x="503" y="690"/>
      <point x="530" y="774"/>
      <point x="607" y="907" type="curve" smooth="yes"/>
      <point x="655" y="985"/>
      <point x="732" y="1075"/>
      <point x="799" y="1124" type="curve" smooth="yes"/>
      <point x="821" y="1140"/>
      <point x="831" y="1145"/>
      <point x="860" y="1145" type="curve" smooth="yes"/>
      <point x="872" y="1145"/>
      <point x="884" y="1132"/>
      <point x="884" y="1120" type="curve" smooth="yes"/>
      <point x="884" y="1106"/>
      <point x="872" y="1081"/>
    </contour>
    <contour>
      <point x="470" y="1061" type="curve" smooth="yes"/>
      <point x="445" y="991"/>
      <point x="398" y="876"/>
      <point x="383" y="801" type="curve" smooth="yes"/>
      <point x="373" y="740"/>
      <point x="369" y="686"/>
      <point x="369" y="655" type="curve" smooth="yes"/>
      <point x="369" y="636"/>
      <point x="362" y="626"/>
      <point x="353" y="613" type="curve" smooth="yes"/>
      <point x="328" y="579"/>
      <point x="246" y="501"/>
      <point x="195" y="472" type="curve" smooth="yes"/>
      <point x="183" y="464"/>
      <point x="169" y="457"/>
      <point x="152" y="457" type="curve" smooth="yes"/>
      <point x="135" y="459"/>
      <point x="108" y="516"/>
      <point x="108" y="593" type="curve" smooth="yes"/>
      <point x="108" y="690"/>
      <point x="135" y="774"/>
      <point x="212" y="907" type="curve" smooth="yes"/>
      <point x="258" y="985"/>
      <point x="335" y="1075"/>
      <point x="403" y="1124" type="curve" smooth="yes"/>
      <point x="424" y="1140"/>
      <point x="436" y="1145"/>
      <point x="464" y="1145" type="curve" smooth="yes"/>
      <point x="477" y="1145"/>
      <point x="487" y="1132"/>
      <point x="487" y="1120" type="curve" smooth="yes"/>
      <point x="487" y="1106"/>
      <point x="477" y="1081"/>
    </contour>
  </outline>
</glyph>
<glyph name="quotedblright" format="1">
  <advance width="1007"/>
  <unicode hex="201D"/>
  <outline>
    <contour>
      <point x="142" y="541" type="curve" smooth="yes"/>
      <point x="166" y="611"/>
      <point x="214" y="725"/>
      <point x="228" y="801" type="curve" smooth="yes"/>
      <point x="238" y="862"/>
      <point x="242" y="916"/>
      <point x="242" y="948" type="curve" smooth="yes"/>
      <point x="242" y="966"/>
      <point x="249" y="977"/>
      <point x="258" y="989" type="curve" smooth="yes"/>
      <point x="284" y="1023"/>
      <point x="366" y="1100"/>
      <point x="416" y="1131" type="curve" smooth="yes"/>
      <point x="428" y="1138"/>
      <point x="443" y="1145"/>
      <point x="459" y="1145" type="curve" smooth="yes"/>
      <point x="477" y="1144"/>
      <point x="503" y="1086"/>
      <point x="503" y="1009" type="curve" smooth="yes"/>
      <point x="503" y="912"/>
      <point x="477" y="828"/>
      <point x="400" y="696" type="curve" smooth="yes"/>
      <point x="353" y="617"/>
      <point x="276" y="527"/>
      <point x="208" y="479" type="curve" smooth="yes"/>
      <point x="186" y="462"/>
      <point x="176" y="457"/>
      <point x="147" y="457" type="curve" smooth="yes"/>
      <point x="135" y="457"/>
      <point x="123" y="470"/>
      <point x="123" y="482" type="curve" smooth="yes"/>
      <point x="123" y="496"/>
      <point x="135" y="522"/>
    </contour>
    <contour>
      <point x="537" y="541" type="curve" smooth="yes"/>
      <point x="563" y="611"/>
      <point x="609" y="725"/>
      <point x="624" y="801" type="curve" smooth="yes"/>
      <point x="634" y="862"/>
      <point x="638" y="916"/>
      <point x="638" y="948" type="curve" smooth="yes"/>
      <point x="638" y="966"/>
      <point x="645" y="977"/>
      <point x="655" y="989" type="curve" smooth="yes"/>
      <point x="679" y="1023"/>
      <point x="761" y="1100"/>
      <point x="812" y="1131" type="curve" smooth="yes"/>
      <point x="824" y="1138"/>
      <point x="838" y="1145"/>
      <point x="855" y="1145" type="curve" smooth="yes"/>
      <point x="872" y="1144"/>
      <point x="900" y="1086"/>
      <point x="900" y="1009" type="curve" smooth="yes"/>
      <point x="900" y="912"/>
      <point x="872" y="828"/>
      <point x="795" y="696" type="curve" smooth="yes"/>
      <point x="749" y="617"/>
      <point x="672" y="527"/>
      <point x="604" y="479" type="curve" smooth="yes"/>
      <point x="583" y="462"/>
      <point x="571" y="457"/>
      <point x="543" y="457" type="curve" smooth="yes"/>
      <point x="530" y="457"/>
      <point x="520" y="470"/>
      <point x="520" y="482" type="curve" smooth="yes"/>
      <point x="520" y="496"/>
      <point x="530" y="522"/>
    </contour>
  </outline>
</glyph>
<glyph name="quotedblbase" format="1">
  <advance width="1007"/>
  <unicode hex="201E"/>
  <outline>
    <contour>
      <point x="249" y="-22" type="curve" smooth="yes"/>
      <point x="249" y="36"/>
      <point x="233" y="82"/>
      <point x="224" y="108" type="curve" smooth="yes"/>
      <point x="222" y="113"/>
      <point x="221" y="116"/>
      <point x="221" y="122" type="curve" smooth="yes"/>
      <point x="221" y="127"/>
      <point x="222" y="133"/>
      <point x="226" y="138" type="curve" smooth="yes"/>
      <point x="246" y="166"/>
      <point x="294" y="228"/>
      <point x="326" y="265" type="curve" smooth="yes"/>
      <point x="332" y="270"/>
      <point x="337" y="272"/>
      <point x="342" y="272" type="curve" smooth="yes"/>
      <point x="347" y="272"/>
      <point x="353" y="269"/>
      <point x="357" y="263" type="curve" smooth="yes"/>
      <point x="373" y="235"/>
      <point x="414" y="156"/>
      <point x="414" y="81" type="curve" smooth="yes"/>
      <point x="414" y="18"/>
      <point x="395" y="-38"/>
      <point x="380" y="-72" type="curve" smooth="yes"/>
      <point x="362" y="-115"/>
      <point x="212" y="-390"/>
      <point x="186" y="-390" type="curve" smooth="yes"/>
      <point x="179" y="-390"/>
      <point x="169" y="-387"/>
      <point x="169" y="-378" type="curve" smooth="yes"/>
      <point x="169" y="-355"/>
      <point x="249" y="-99"/>
    </contour>
    <contour>
      <point x="701" y="-22" type="curve" smooth="yes"/>
      <point x="701" y="36"/>
      <point x="684" y="82"/>
      <point x="676" y="108" type="curve" smooth="yes"/>
      <point x="674" y="113"/>
      <point x="672" y="116"/>
      <point x="672" y="122" type="curve" smooth="yes"/>
      <point x="672" y="127"/>
      <point x="674" y="133"/>
      <point x="677" y="138" type="curve" smooth="yes"/>
      <point x="697" y="166"/>
      <point x="746" y="228"/>
      <point x="778" y="265" type="curve" smooth="yes"/>
      <point x="783" y="270"/>
      <point x="788" y="272"/>
      <point x="794" y="272" type="curve" smooth="yes"/>
      <point x="799" y="272"/>
      <point x="805" y="269"/>
      <point x="809" y="263" type="curve" smooth="yes"/>
      <point x="824" y="235"/>
      <point x="865" y="156"/>
      <point x="865" y="81" type="curve" smooth="yes"/>
      <point x="865" y="18"/>
      <point x="846" y="-38"/>
      <point x="831" y="-72" type="curve" smooth="yes"/>
      <point x="814" y="-115"/>
      <point x="663" y="-390"/>
      <point x="638" y="-390" type="curve" smooth="yes"/>
      <point x="631" y="-390"/>
      <point x="620" y="-387"/>
      <point x="620" y="-378" type="curve" smooth="yes"/>
      <point x="620" y="-355"/>
      <point x="701" y="-99"/>
    </contour>
  </outline>
</glyph>
<glyph name="guilsinglright" format="1">
  <advance width="414"/>
  <unicode hex="203A"/>
  <outline>
    <contour>
      <point x="240" y="339" type="curve" smooth="yes"/>
      <point x="269" y="375"/>
      <point x="313" y="439"/>
      <point x="335" y="484" type="curve" smooth="yes"/>
      <point x="339" y="491"/>
      <point x="342" y="501"/>
      <point x="342" y="511" type="curve" smooth="yes"/>
      <point x="342" y="522"/>
      <point x="339" y="532"/>
      <point x="326" y="552" type="curve" smooth="yes"/>
      <point x="299" y="597"/>
      <point x="238" y="665"/>
      <point x="190" y="706" type="curve" smooth="yes"/>
      <point x="181" y="713"/>
      <point x="176" y="715"/>
      <point x="172" y="715" type="curve" smooth="yes"/>
      <point x="166" y="715"/>
      <point x="159" y="711"/>
      <point x="154" y="706" type="curve" smooth="yes"/>
      <point x="123" y="672"/>
      <point x="101" y="634"/>
      <point x="88" y="613" type="curve"/>
      <point x="88" y="613"/>
      <point x="77" y="593"/>
      <point x="77" y="585" type="curve" smooth="yes"/>
      <point x="77" y="579"/>
      <point x="79" y="570"/>
      <point x="84" y="564" type="curve" smooth="yes"/>
      <point x="165" y="482" type="line" smooth="yes"/>
      <point x="171" y="477"/>
      <point x="174" y="466"/>
      <point x="174" y="460" type="curve" smooth="yes"/>
      <point x="174" y="455"/>
      <point x="174" y="448"/>
      <point x="169" y="439" type="curve" smooth="yes"/>
      <point x="147" y="396"/>
      <point x="118" y="344"/>
      <point x="97" y="299" type="curve" smooth="yes"/>
      <point x="93" y="292"/>
      <point x="93" y="285"/>
      <point x="93" y="279" type="curve" smooth="yes"/>
      <point x="93" y="272"/>
      <point x="99" y="267"/>
      <point x="108" y="267" type="curve" smooth="yes"/>
      <point x="111" y="267"/>
      <point x="116" y="267"/>
      <point x="123" y="270" type="curve" smooth="yes"/>
      <point x="138" y="276"/>
      <point x="186" y="299"/>
      <point x="195" y="305" type="curve" smooth="yes"/>
      <point x="208" y="312"/>
      <point x="224" y="317"/>
    </contour>
  </outline>
</glyph>
<glyph name="radical" format="1">
  <advance width="1366"/>
  <unicode hex="221A"/>
  <outline>
    <contour>
      <point x="963" y="575" type="curve" smooth="yes"/>
      <point x="925" y="609"/>
      <point x="828" y="683"/>
      <point x="735" y="760" type="curve" smooth="yes"/>
      <point x="701" y="788"/>
      <point x="715" y="828"/>
      <point x="683" y="853" type="curve" smooth="yes"/>
      <point x="641" y="884"/>
      <point x="549" y="925"/>
      <point x="522" y="939" type="curve" smooth="yes"/>
      <point x="466" y="968"/>
      <point x="423" y="1002"/>
      <point x="419" y="1045" type="curve" smooth="yes"/>
      <point x="414" y="1089"/>
      <point x="419" y="1267"/>
      <point x="403" y="1322" type="curve" smooth="yes"/>
      <point x="395" y="1353"/>
      <point x="375" y="1375"/>
      <point x="353" y="1375" type="curve" smooth="yes"/>
      <point x="346" y="1375"/>
      <point x="339" y="1369"/>
      <point x="332" y="1362" type="curve" smooth="yes"/>
      <point x="291" y="1322"/>
      <point x="197" y="1217"/>
      <point x="172" y="1166" type="curve" smooth="yes"/>
      <point x="169" y="1159"/>
      <point x="166" y="1152"/>
      <point x="166" y="1147" type="curve" smooth="yes"/>
      <point x="166" y="1140"/>
      <point x="169" y="1134"/>
      <point x="172" y="1127" type="curve" smooth="yes"/>
      <point x="192" y="1093"/>
      <point x="202" y="1057"/>
      <point x="212" y="1011" type="curve" smooth="yes"/>
      <point x="217" y="978"/>
      <point x="219" y="946"/>
      <point x="219" y="910" type="curve" smooth="yes"/>
      <point x="219" y="884"/>
      <point x="217" y="858"/>
      <point x="217" y="850" type="curve" smooth="yes"/>
      <point x="217" y="773"/>
      <point x="240" y="722"/>
      <point x="285" y="701" type="curve" smooth="yes"/>
      <point x="383" y="656" type="line"/>
      <point x="421" y="631"/>
      <point x="446" y="614"/>
      <point x="446" y="575" type="curve" smooth="yes"/>
      <point x="446" y="453"/>
      <point x="380" y="353"/>
      <point x="346" y="330" type="curve" smooth="yes"/>
      <point x="296" y="294"/>
      <point x="291" y="301"/>
      <point x="207" y="282" type="curve" smooth="yes"/>
      <point x="190" y="277"/>
      <point x="185" y="274"/>
      <point x="174" y="260" type="curve" smooth="yes"/>
      <point x="135" y="208"/>
      <point x="79" y="58"/>
      <point x="79" y="-4" type="curve" smooth="yes"/>
      <point x="79" y="-22"/>
      <point x="86" y="-31"/>
      <point x="102" y="-31" type="curve" smooth="yes"/>
      <point x="137" y="-31"/>
      <point x="217" y="-9"/>
      <point x="287" y="12" type="curve" smooth="yes"/>
      <point x="353" y="32"/>
      <point x="390" y="53"/>
      <point x="424" y="95" type="curve" smooth="yes"/>
      <point x="515" y="202"/>
      <point x="585" y="325"/>
      <point x="629" y="453" type="curve" smooth="yes"/>
      <point x="633" y="464"/>
      <point x="638" y="470"/>
      <point x="643" y="470" type="curve" smooth="yes"/>
      <point x="648" y="470"/>
      <point x="655" y="466"/>
      <point x="660" y="462" type="curve" smooth="yes"/>
      <point x="708" y="423"/>
      <point x="737" y="390"/>
      <point x="816" y="310" type="curve" smooth="yes"/>
      <point x="951" y="172"/>
      <point x="1067" y="48"/>
      <point x="1140" y="-36" type="curve" smooth="yes"/>
      <point x="1144" y="-39"/>
      <point x="1149" y="-45"/>
      <point x="1156" y="-45" type="curve" smooth="yes"/>
      <point x="1163" y="-45"/>
      <point x="1168" y="-39"/>
      <point x="1173" y="-34" type="curve" smooth="yes"/>
      <point x="1188" y="-18"/>
      <point x="1262" y="102"/>
      <point x="1292" y="179" type="curve" smooth="yes"/>
      <point x="1296" y="188"/>
      <point x="1299" y="195"/>
      <point x="1299" y="204" type="curve" smooth="yes"/>
      <point x="1299" y="208"/>
      <point x="1298" y="212"/>
      <point x="1292" y="219" type="curve" smooth="yes"/>
      <point x="1286" y="228"/>
      <point x="1159" y="375"/>
      <point x="1086" y="450" type="curve" smooth="yes"/>
      <point x="1082" y="453"/>
      <point x="1081" y="457"/>
      <point x="1081" y="462" type="curve" smooth="yes"/>
      <point x="1081" y="464"/>
      <point x="1081" y="468"/>
      <point x="1082" y="472" type="curve" smooth="yes"/>
      <point x="1125" y="532"/>
      <point x="1166" y="597"/>
      <point x="1192" y="655" type="curve" smooth="yes"/>
      <point x="1217" y="710"/>
      <point x="1233" y="756"/>
      <point x="1233" y="833" type="curve" smooth="yes"/>
      <point x="1233" y="928"/>
      <point x="1204" y="1000"/>
      <point x="1168" y="1061" type="curve" smooth="yes"/>
      <point x="1163" y="1070"/>
      <point x="1156" y="1081"/>
      <point x="1147" y="1081" type="curve" smooth="yes"/>
      <point x="1138" y="1081"/>
      <point x="1132" y="1075"/>
      <point x="1127" y="1070" type="curve" smooth="yes"/>
      <point x="1057" y="1004"/>
      <point x="991" y="912"/>
      <point x="956" y="855" type="curve" smooth="yes"/>
      <point x="949" y="848"/>
      <point x="946" y="837"/>
      <point x="946" y="828" type="curve" smooth="yes"/>
      <point x="946" y="816"/>
      <point x="959" y="797"/>
      <point x="970" y="773" type="curve" smooth="yes"/>
      <point x="989" y="725"/>
      <point x="997" y="655"/>
      <point x="997" y="597" type="curve" smooth="yes"/>
      <point x="997" y="571"/>
      <point x="989" y="563"/>
      <point x="980" y="563" type="curve" smooth="yes"/>
      <point x="975" y="563"/>
      <point x="968" y="570"/>
    </contour>
  </outline>
</glyph>
<glyph name="greaterequal" format="1">
  <advance width="1018"/>
  <unicode hex="2265"/>
  <outline>
    <contour>
      <point x="855" y="137" type="curve"/>
      <point x="879" y="137"/>
      <point x="884" y="125"/>
      <point x="884" y="108" type="curve" smooth="yes"/>
      <point x="884" y="31" type="line" smooth="yes"/>
      <point x="884" y="14"/>
      <point x="879" y="4"/>
      <point x="855" y="4" type="curve" smooth="yes"/>
      <point x="855" y="4"/>
      <point x="604" y="9"/>
      <point x="506" y="9" type="curve" smooth="yes"/>
      <point x="423" y="9"/>
      <point x="161" y="4"/>
      <point x="161" y="4" type="curve"/>
      <point x="138" y="4"/>
      <point x="133" y="14"/>
      <point x="133" y="31" type="curve" smooth="yes"/>
      <point x="133" y="108" type="line" smooth="yes"/>
      <point x="133" y="133"/>
      <point x="147" y="137"/>
      <point x="158" y="137" type="curve" smooth="yes"/>
      <point x="158" y="137"/>
      <point x="407" y="131"/>
      <point x="509" y="131" type="curve" smooth="yes"/>
      <point x="626" y="131"/>
      <point x="855" y="137"/>
    </contour>
    <contour>
      <point x="853" y="527" type="curve"/>
      <point x="835" y="520"/>
      <point x="665" y="448"/>
      <point x="559" y="398" type="curve" smooth="yes"/>
      <point x="468" y="355"/>
      <point x="207" y="219"/>
      <point x="207" y="219" type="curve"/>
      <point x="202" y="217"/>
      <point x="199" y="217"/>
      <point x="193" y="217" type="curve" smooth="yes"/>
      <point x="186" y="217"/>
      <point x="178" y="221"/>
      <point x="171" y="235" type="curve" smooth="yes"/>
      <point x="138" y="305" type="line" smooth="yes"/>
      <point x="137" y="310"/>
      <point x="135" y="315"/>
      <point x="135" y="319" type="curve" smooth="yes"/>
      <point x="135" y="326"/>
      <point x="138" y="333"/>
      <point x="152" y="340" type="curve"/>
      <point x="152" y="340"/>
      <point x="366" y="438"/>
      <point x="441" y="473" type="curve" smooth="yes"/>
      <point x="498" y="498"/>
      <point x="614" y="557"/>
      <point x="696" y="597" type="curve"/>
      <point x="614" y="638"/>
      <point x="498" y="696"/>
      <point x="441" y="722" type="curve" smooth="yes"/>
      <point x="366" y="758"/>
      <point x="152" y="855"/>
      <point x="152" y="855" type="curve"/>
      <point x="138" y="862"/>
      <point x="135" y="869"/>
      <point x="135" y="876" type="curve" smooth="yes"/>
      <point x="135" y="880"/>
      <point x="137" y="886"/>
      <point x="138" y="891" type="curve" smooth="yes"/>
      <point x="171" y="961" type="line" smooth="yes"/>
      <point x="178" y="975"/>
      <point x="186" y="978"/>
      <point x="193" y="978" type="curve" smooth="yes"/>
      <point x="199" y="978"/>
      <point x="202" y="978"/>
      <point x="207" y="977" type="curve"/>
      <point x="207" y="977"/>
      <point x="436" y="860"/>
      <point x="527" y="817" type="curve" smooth="yes"/>
      <point x="648" y="760"/>
      <point x="742" y="718"/>
      <point x="853" y="670" type="curve" smooth="yes"/>
      <point x="871" y="663"/>
      <point x="884" y="655"/>
      <point x="884" y="636" type="curve" smooth="yes"/>
      <point x="884" y="561" type="line" smooth="yes"/>
      <point x="884" y="545"/>
      <point x="872" y="537"/>
    </contour>
  </outline>
</glyph>
<glyph name="bar" format="1">
  <advance width="585"/>
  <outline>
    <contour>
      <point x="246" y="-277" type="curve" smooth="yes"/>
      <point x="246" y="-292"/>
      <point x="249" y="-308"/>
      <point x="270" y="-308" type="curve" smooth="yes"/>
      <point x="313" y="-308" type="line" smooth="yes"/>
      <point x="333" y="-308"/>
      <point x="340" y="-294"/>
      <point x="340" y="-279" type="curve" smooth="yes"/>
      <point x="347" y="41"/>
      <point x="351" y="405"/>
      <point x="351" y="520" type="curve" smooth="yes"/>
      <point x="351" y="667"/>
      <point x="346" y="1057"/>
      <point x="340" y="1291" type="curve" smooth="yes"/>
      <point x="340" y="1305"/>
      <point x="333" y="1319"/>
      <point x="313" y="1319" type="curve" smooth="yes"/>
      <point x="270" y="1319" type="line" smooth="yes"/>
      <point x="249" y="1319"/>
      <point x="246" y="1303"/>
      <point x="246" y="1289" type="curve" smooth="yes"/>
      <point x="238" y="1061"/>
      <point x="233" y="667"/>
      <point x="233" y="520" type="curve" smooth="yes"/>
      <point x="233" y="405"/>
      <point x="240" y="-2"/>
    </contour>
  </outline>
</glyph>
<glyph name="eight.001" format="1">
  <advance width="896"/>
  <outline>
    <contour>
      <point x="84" y="270" type="curve" smooth="yes"/>
      <point x="84" y="410"/>
      <point x="178" y="487"/>
      <point x="262" y="534" type="curve" smooth="yes"/>
      <point x="269" y="537"/>
      <point x="270" y="543"/>
      <point x="270" y="545" type="curve" smooth="yes"/>
      <point x="270" y="549"/>
      <point x="270" y="550"/>
      <point x="269" y="552" type="curve" smooth="yes"/>
      <point x="217" y="579"/>
      <point x="138" y="638"/>
      <point x="138" y="763" type="curve" smooth="yes"/>
      <point x="138" y="797"/>
      <point x="152" y="853"/>
      <point x="174" y="884" type="curve" smooth="yes"/>
      <point x="207" y="932"/>
      <point x="270" y="997"/>
      <point x="308" y="1019" type="curve" smooth="yes"/>
      <point x="337" y="1041"/>
      <point x="387" y="1067"/>
      <point x="452" y="1067" type="curve" smooth="yes"/>
      <point x="585" y="1067"/>
      <point x="699" y="968"/>
      <point x="699" y="838" type="curve" smooth="yes"/>
      <point x="699" y="744"/>
      <point x="645" y="676"/>
      <point x="577" y="626" type="curve" smooth="yes"/>
      <point x="563" y="614"/>
      <point x="552" y="607"/>
      <point x="547" y="600" type="curve" smooth="yes"/>
      <point x="545" y="599"/>
      <point x="545" y="595"/>
      <point x="545" y="595" type="curve" smooth="yes"/>
      <point x="545" y="590"/>
      <point x="547" y="588"/>
      <point x="549" y="586" type="curve" smooth="yes"/>
      <point x="575" y="571"/>
      <point x="624" y="543"/>
      <point x="662" y="511" type="curve" smooth="yes"/>
      <point x="713" y="464"/>
      <point x="751" y="387"/>
      <point x="751" y="313" type="curve" smooth="yes"/>
      <point x="751" y="249"/>
      <point x="718" y="172"/>
      <point x="665" y="108" type="curve" smooth="yes"/>
      <point x="607" y="41"/>
      <point x="489" y="-29"/>
      <point x="402" y="-29" type="curve" smooth="yes"/>
      <point x="340" y="-29"/>
      <point x="233" y="4"/>
      <point x="169" y="70" type="curve" smooth="yes"/>
      <point x="113" y="127"/>
      <point x="84" y="193"/>
    </contour>
    <contour>
      <point x="590" y="270" type="curve" smooth="yes"/>
      <point x="590" y="323"/>
      <point x="563" y="369"/>
      <point x="529" y="393" type="curve" smooth="yes"/>
      <point x="489" y="416"/>
      <point x="432" y="450"/>
      <point x="378" y="475" type="curve" smooth="yes"/>
      <point x="375" y="477"/>
      <point x="373" y="477"/>
      <point x="373" y="477" type="curve" smooth="yes"/>
      <point x="369" y="477"/>
      <point x="368" y="477"/>
      <point x="364" y="475" type="curve" smooth="yes"/>
      <point x="337" y="466"/>
      <point x="238" y="410"/>
      <point x="238" y="313" type="curve" smooth="yes"/>
      <point x="238" y="212"/>
      <point x="335" y="129"/>
      <point x="455" y="129" type="curve" smooth="yes"/>
      <point x="554" y="129"/>
      <point x="590" y="172"/>
    </contour>
    <contour>
      <point x="455" y="648" type="line"/>
      <point x="511" y="681"/>
      <point x="552" y="727"/>
      <point x="552" y="788" type="curve" smooth="yes"/>
      <point x="552" y="865"/>
      <point x="470" y="925"/>
      <point x="390" y="925" type="curve" smooth="yes"/>
      <point x="310" y="925"/>
      <point x="287" y="871"/>
      <point x="287" y="795" type="curve" smooth="yes"/>
      <point x="287" y="725"/>
      <point x="362" y="676"/>
      <point x="409" y="655" type="curve" smooth="yes"/>
      <point x="416" y="650"/>
      <point x="428" y="643"/>
      <point x="436" y="643" type="curve"/>
    </contour>
  </outline>
</glyph>
<glyph name="five.001" format="1">
  <advance width="896"/>
  <outline>
    <contour>
      <point x="224" y="161" type="curve" smooth="yes"/>
      <point x="228" y="166"/>
      <point x="236" y="172"/>
      <point x="244" y="172" type="curve" smooth="yes"/>
      <point x="248" y="172"/>
      <point x="256" y="171"/>
      <point x="262" y="169" type="curve" smooth="yes"/>
      <point x="310" y="152"/>
      <point x="382" y="140"/>
      <point x="431" y="140" type="curve" smooth="yes"/>
      <point x="473" y="140"/>
      <point x="536" y="144"/>
      <point x="566" y="171" type="curve" smooth="yes"/>
      <point x="602" y="200"/>
      <point x="606" y="240"/>
      <point x="606" y="298" type="curve" smooth="yes"/>
      <point x="606" y="351"/>
      <point x="579" y="390"/>
      <point x="537" y="423" type="curve" smooth="yes"/>
      <point x="493" y="455"/>
      <point x="403" y="479"/>
      <point x="317" y="479" type="curve" smooth="yes"/>
      <point x="255" y="479" type="line"/>
      <point x="210" y="479"/>
      <point x="192" y="501"/>
      <point x="188" y="527" type="curve" smooth="yes"/>
      <point x="179" y="606"/>
      <point x="179" y="715"/>
      <point x="179" y="787" type="curve" smooth="yes"/>
      <point x="179" y="824"/>
      <point x="181" y="837"/>
      <point x="181" y="857" type="curve" smooth="yes"/>
      <point x="181" y="865"/>
      <point x="178" y="882"/>
      <point x="178" y="898" type="curve" smooth="yes"/>
      <point x="178" y="912"/>
      <point x="179" y="925"/>
      <point x="185" y="935" type="curve" smooth="yes"/>
      <point x="212" y="985"/>
      <point x="236" y="1038"/>
      <point x="262" y="1067" type="curve" smooth="yes"/>
      <point x="263" y="1070"/>
      <point x="270" y="1074"/>
      <point x="277" y="1074" type="curve" smooth="yes"/>
      <point x="285" y="1074"/>
      <point x="299" y="1070"/>
      <point x="301" y="1065" type="curve" smooth="yes"/>
      <point x="310" y="1050"/>
      <point x="330" y="1009"/>
      <point x="337" y="1000" type="curve" smooth="yes"/>
      <point x="344" y="991"/>
      <point x="353" y="991"/>
      <point x="364" y="991" type="curve" smooth="yes"/>
      <point x="708" y="991" type="line"/>
      <point x="727" y="991"/>
      <point x="735" y="982"/>
      <point x="735" y="975" type="curve" smooth="yes"/>
      <point x="735" y="968"/>
      <point x="724" y="948"/>
      <point x="722" y="946" type="curve" smooth="yes"/>
      <point x="708" y="925"/>
      <point x="658" y="855"/>
      <point x="643" y="837" type="curve" smooth="yes"/>
      <point x="634" y="826"/>
      <point x="620" y="821"/>
      <point x="600" y="821" type="curve" smooth="yes"/>
      <point x="351" y="821" type="line"/>
      <point x="333" y="821"/>
      <point x="325" y="817"/>
      <point x="325" y="799" type="curve" smooth="yes"/>
      <point x="325" y="799"/>
      <point x="330" y="703"/>
      <point x="330" y="679" type="curve" smooth="yes"/>
      <point x="330" y="655"/>
      <point x="347" y="634"/>
      <point x="364" y="634" type="curve"/>
      <point x="453" y="634" type="line"/>
      <point x="566" y="634"/>
      <point x="758" y="552"/>
      <point x="758" y="361" type="curve" smooth="yes"/>
      <point x="758" y="263"/>
      <point x="713" y="193"/>
      <point x="683" y="154" type="curve" smooth="yes"/>
      <point x="606" y="55"/>
      <point x="472" y="-29"/>
      <point x="349" y="-29" type="curve" smooth="yes"/>
      <point x="287" y="-29"/>
      <point x="208" y="-14"/>
      <point x="152" y="11" type="curve" smooth="yes"/>
      <point x="142" y="16"/>
      <point x="138" y="22"/>
      <point x="138" y="29" type="curve" smooth="yes"/>
      <point x="138" y="36"/>
      <point x="144" y="43"/>
      <point x="145" y="46" type="curve" smooth="yes"/>
      <point x="172" y="86"/>
      <point x="210" y="144"/>
    </contour>
  </outline>
</glyph>
<glyph name="four.001" format="1">
  <advance width="896"/>
  <outline>
    <contour>
      <point x="520" y="269" type="curve" smooth="yes"/>
      <point x="520" y="287"/>
      <point x="511" y="294"/>
      <point x="491" y="294" type="curve"/>
      <point x="147" y="294" type="line"/>
      <point x="93" y="294"/>
      <point x="79" y="359"/>
      <point x="79" y="405" type="curve" smooth="yes"/>
      <point x="79" y="503"/>
      <point x="235" y="742"/>
      <point x="263" y="785" type="curve" smooth="yes"/>
      <point x="346" y="908"/>
      <point x="436" y="997"/>
      <point x="575" y="1074" type="curve" smooth="yes"/>
      <point x="585" y="1077"/>
      <point x="592" y="1081"/>
      <point x="599" y="1081" type="curve" smooth="yes"/>
      <point x="617" y="1081"/>
      <point x="631" y="1068"/>
      <point x="633" y="1047" type="curve" smooth="yes"/>
      <point x="655" y="869"/>
      <point x="656" y="511"/>
      <point x="656" y="473" type="curve" smooth="yes"/>
      <point x="658" y="457"/>
      <point x="665" y="457"/>
      <point x="676" y="457" type="curve"/>
      <point x="826" y="457" type="line"/>
      <point x="841" y="455"/>
      <point x="844" y="450"/>
      <point x="844" y="441" type="curve" smooth="yes"/>
      <point x="844" y="434"/>
      <point x="838" y="423"/>
      <point x="833" y="412" type="curve" smooth="yes"/>
      <point x="824" y="395"/>
      <point x="799" y="346"/>
      <point x="780" y="319" type="curve" smooth="yes"/>
      <point x="773" y="310"/>
      <point x="760" y="296"/>
      <point x="742" y="296" type="curve" smooth="yes"/>
      <point x="679" y="296" type="line"/>
      <point x="665" y="296"/>
      <point x="660" y="289"/>
      <point x="660" y="276" type="curve" smooth="yes"/>
      <point x="660" y="260"/>
      <point x="662" y="197"/>
      <point x="662" y="137" type="curve"/>
      <point x="662" y="123"/>
      <point x="660" y="113"/>
      <point x="655" y="99" type="curve" smooth="yes"/>
      <point x="640" y="70"/>
      <point x="595" y="-4"/>
      <point x="563" y="-38" type="curve" smooth="yes"/>
      <point x="559" y="-41"/>
      <point x="547" y="-45"/>
      <point x="543" y="-45" type="curve" smooth="yes"/>
      <point x="534" y="-45"/>
      <point x="527" y="-38"/>
      <point x="527" y="-20" type="curve" smooth="yes"/>
      <point x="527" y="86"/>
      <point x="520" y="248"/>
    </contour>
    <contour>
      <point x="494" y="830" type="curve" smooth="yes"/>
      <point x="493" y="843"/>
      <point x="487" y="848"/>
      <point x="477" y="848" type="curve" smooth="yes"/>
      <point x="473" y="848"/>
      <point x="466" y="846"/>
      <point x="459" y="843" type="curve" smooth="yes"/>
      <point x="410" y="814"/>
      <point x="380" y="783"/>
      <point x="357" y="753" type="curve" smooth="yes"/>
      <point x="285" y="663"/>
      <point x="214" y="543"/>
      <point x="214" y="491" type="curve" smooth="yes"/>
      <point x="214" y="459"/>
      <point x="224" y="453"/>
      <point x="244" y="453" type="curve"/>
      <point x="501" y="453" type="line"/>
      <point x="508" y="453"/>
      <point x="515" y="466"/>
      <point x="515" y="475" type="curve" smooth="yes"/>
      <point x="513" y="529"/>
      <point x="513" y="697"/>
    </contour>
  </outline>
</glyph>
<glyph name="nine.001" format="1">
  <advance width="896"/>
  <outline>
    <contour>
      <point x="491" y="376" type="curve" smooth="yes"/>
      <point x="491" y="382"/>
      <point x="491" y="385"/>
      <point x="486" y="385" type="curve" smooth="yes"/>
      <point x="480" y="385"/>
      <point x="436" y="362"/>
      <point x="382" y="362" type="curve" smooth="yes"/>
      <point x="312" y="362"/>
      <point x="242" y="385"/>
      <point x="186" y="441" type="curve" smooth="yes"/>
      <point x="129" y="501"/>
      <point x="88" y="577"/>
      <point x="88" y="677" type="curve" smooth="yes"/>
      <point x="88" y="774"/>
      <point x="125" y="850"/>
      <point x="181" y="923" type="curve" smooth="yes"/>
      <point x="238" y="998"/>
      <point x="353" y="1067"/>
      <point x="460" y="1067" type="curve" smooth="yes"/>
      <point x="636" y="1067"/>
      <point x="799" y="912"/>
      <point x="799" y="737" type="curve" smooth="yes"/>
      <point x="799" y="629"/>
      <point x="754" y="529"/>
      <point x="701" y="441" type="curve" smooth="yes"/>
      <point x="645" y="349"/>
      <point x="518" y="169"/>
      <point x="475" y="111" type="curve" smooth="yes"/>
      <point x="460" y="93"/>
      <point x="445" y="75"/>
      <point x="436" y="67" type="curve" smooth="yes"/>
      <point x="412" y="45"/>
      <point x="274" y="-46"/>
      <point x="242" y="-46" type="curve" smooth="yes"/>
      <point x="231" y="-46"/>
      <point x="222" y="-36"/>
      <point x="222" y="-27" type="curve" smooth="yes"/>
      <point x="222" y="-20"/>
      <point x="224" y="-14"/>
      <point x="228" y="-7" type="curve" smooth="yes"/>
      <point x="253" y="29"/>
      <point x="491" y="371"/>
    </contour>
    <contour>
      <point x="412" y="914" type="curve" smooth="yes"/>
      <point x="353" y="914"/>
      <point x="287" y="889"/>
      <point x="258" y="843" type="curve" smooth="yes"/>
      <point x="238" y="810"/>
      <point x="229" y="758"/>
      <point x="229" y="725" type="curve" smooth="yes"/>
      <point x="229" y="647"/>
      <point x="260" y="597"/>
      <point x="298" y="556" type="curve" smooth="yes"/>
      <point x="333" y="518"/>
      <point x="405" y="494"/>
      <point x="453" y="494" type="curve" smooth="yes"/>
      <point x="520" y="494"/>
      <point x="549" y="513"/>
      <point x="577" y="543" type="curve" smooth="yes"/>
      <point x="609" y="573"/>
      <point x="634" y="636"/>
      <point x="634" y="704" type="curve" smooth="yes"/>
      <point x="634" y="830"/>
      <point x="527" y="914"/>
    </contour>
  </outline>
</glyph>
<glyph name="orn.3" format="1">
  <advance width="1033"/>
  <outline>
    <contour>
      <point x="335" y="-219" type="curve" smooth="yes"/>
      <point x="349" y="-238"/>
      <point x="383" y="-274"/>
      <point x="407" y="-294" type="curve" smooth="yes"/>
      <point x="417" y="-303"/>
      <point x="426" y="-308"/>
      <point x="436" y="-308" type="curve" smooth="yes"/>
      <point x="445" y="-308"/>
      <point x="453" y="-301"/>
      <point x="460" y="-292" type="curve" smooth="yes"/>
      <point x="532" y="-190"/>
      <point x="550" y="60"/>
      <point x="550" y="238" type="curve" smooth="yes"/>
      <point x="550" y="534"/>
      <point x="708" y="703"/>
      <point x="914" y="704" type="curve" smooth="yes"/>
      <point x="923" y="704"/>
      <point x="925" y="708"/>
      <point x="925" y="715" type="curve" smooth="yes"/>
      <point x="925" y="720"/>
      <point x="923" y="730"/>
      <point x="920" y="740" type="curve" smooth="yes"/>
      <point x="901" y="794"/>
      <point x="884" y="843"/>
      <point x="860" y="891" type="curve" smooth="yes"/>
      <point x="857" y="900"/>
      <point x="853" y="901"/>
      <point x="844" y="901" type="curve" smooth="yes"/>
      <point x="773" y="896"/>
      <point x="622" y="730"/>
      <point x="566" y="556" type="curve" smooth="yes"/>
      <point x="561" y="539"/>
      <point x="557" y="530"/>
      <point x="554" y="530" type="curve" smooth="yes"/>
      <point x="550" y="530"/>
      <point x="547" y="541"/>
      <point x="547" y="568" type="curve" smooth="yes"/>
      <point x="547" y="665"/>
      <point x="611" y="1038"/>
      <point x="611" y="1199" type="curve" smooth="yes"/>
      <point x="611" y="1222"/>
      <point x="607" y="1226"/>
      <point x="599" y="1226" type="curve" smooth="yes"/>
      <point x="434" y="1226" type="line" smooth="yes"/>
      <point x="423" y="1226"/>
      <point x="421" y="1221"/>
      <point x="421" y="1202" type="curve" smooth="yes"/>
      <point x="421" y="1038"/>
      <point x="486" y="662"/>
      <point x="486" y="568" type="curve" smooth="yes"/>
      <point x="486" y="541"/>
      <point x="484" y="529"/>
      <point x="480" y="529" type="curve" smooth="yes"/>
      <point x="477" y="529"/>
      <point x="472" y="539"/>
      <point x="464" y="556" type="curve" smooth="yes"/>
      <point x="385" y="751"/>
      <point x="260" y="898"/>
      <point x="190" y="901" type="curve" smooth="yes"/>
      <point x="179" y="901"/>
      <point x="176" y="898"/>
      <point x="171" y="889" type="curve" smooth="yes"/>
      <point x="147" y="844"/>
      <point x="131" y="797"/>
      <point x="111" y="744" type="curve" smooth="yes"/>
      <point x="109" y="739"/>
      <point x="106" y="725"/>
      <point x="106" y="720" type="curve" smooth="yes"/>
      <point x="106" y="711"/>
      <point x="109" y="704"/>
      <point x="118" y="704" type="curve" smooth="yes"/>
      <point x="373" y="704"/>
      <point x="484" y="443"/>
      <point x="484" y="238" type="curve" smooth="yes"/>
      <point x="484" y="106"/>
      <point x="459" y="-111"/>
      <point x="335" y="-193" type="curve" smooth="yes"/>
      <point x="330" y="-197"/>
      <point x="328" y="-200"/>
      <point x="328" y="-204" type="curve" smooth="yes"/>
      <point x="328" y="-208"/>
      <point x="330" y="-212"/>
    </contour>
  </outline>
</glyph>
